<svg xmlns="http://www.w3.org/2000/svg" viewBox="0 0 300 220" fill="none" aria-hidden="true">
<rect width="300" height="220" fill="#edf0f8"/>
<rect x="0" y="176" width="300" height="44" fill="#c5e86d" opacity="0.08"/>
<line x1="0" y1="176" x2="300" y2="176" stroke="#c5e86d" stroke-width="1.5" opacity="0.3"/>
<line x1="222" y1="64" x2="224" y2="94" stroke="#1c2240" stroke-width="11" stroke-linecap="round" stroke-linejoin="round"/><line x1="224" y1="94" x2="222" y2="112" stroke="#1c2240" stroke-width="9" stroke-linecap="round" stroke-linejoin="round"/><line x1="150" y1="80" x2="112" y2="98" stroke="#1c2240" stroke-width="14" stroke-linecap="round" stroke-linejoin="round"/><line x1="112" y1="98" x2="74" y2="110" stroke="#1c2240" stroke-width="11" stroke-linecap="round" stroke-linejoin="round"/><line x1="222" y1="64" x2="150" y2="80" stroke="#1c2240" stroke-width="18" stroke-linecap="round" stroke-linejoin="round"/><line x1="150" y1="80" x2="116" y2="94" stroke="#1c2240" stroke-width="16" stroke-linecap="round" stroke-linejoin="round"/><line x1="116" y1="94" x2="78" y2="106" stroke="#1c2240" stroke-width="13" stroke-linecap="round" stroke-linejoin="round"/><line x1="222" y1="64" x2="222" y2="90" stroke="#1c2240" stroke-width="13" stroke-linecap="round" stroke-linejoin="round"/><line x1="222" y1="90" x2="220" y2="108" stroke="#1c2240" stroke-width="11" stroke-linecap="round" stroke-linejoin="round"/><path d="M258 46 C264 32 272 40 268 56 C264 54 259 50 258 46Z" fill="#1c2240"/><circle cx="244" cy="50" r="13" fill="#1c2240"/>
<text x="150" y="196" text-anchor="middle" fill="#c5e86d" font-family="'Segoe UI',system-ui,sans-serif" font-size="13" font-weight="700" letter-spacing="0.1em">PRŮBĚH</text>
<text x="150" y="211" text-anchor="middle" fill="#8090b0" font-family="'Segoe UI',system-ui,sans-serif" font-size="8.5" font-weight="400">zpevni střed · záda rovná</text>
</svg>