<svg xmlns="http://www.w3.org/2000/svg" viewBox="0 0 300 220" fill="none" aria-hidden="true">
<rect width="300" height="220" fill="#edf0f8"/>
<rect x="0" y="176" width="300" height="44" fill="#ff5c5c" opacity="0.08"/>
<line x1="0" y1="176" x2="300" y2="176" stroke="#ff5c5c" stroke-width="1.5" opacity="0.3"/>
<line x1="208" y1="66" x2="178" y2="88" stroke="#1c2240" stroke-width="11" stroke-linecap="round" stroke-linejoin="round"/><line x1="178" y1="88" x2="162" y2="100" stroke="#1c2240" stroke-width="9" stroke-linecap="round" stroke-linejoin="round"/><line x1="132" y1="98" x2="92" y2="106" stroke="#1c2240" stroke-width="14" stroke-linecap="round" stroke-linejoin="round"/><line x1="92" y1="106" x2="56" y2="120" stroke="#1c2240" stroke-width="11" stroke-linecap="round" stroke-linejoin="round"/><line x1="208" y1="66" x2="132" y2="98" stroke="#1c2240" stroke-width="18" stroke-linecap="round" stroke-linejoin="round"/><line x1="132" y1="98" x2="96" y2="114" stroke="#1c2240" stroke-width="16" stroke-linecap="round" stroke-linejoin="round"/><line x1="96" y1="114" x2="60" y2="128" stroke="#1c2240" stroke-width="13" stroke-linecap="round" stroke-linejoin="round"/><line x1="208" y1="66" x2="210" y2="86" stroke="#1c2240" stroke-width="13" stroke-linecap="round" stroke-linejoin="round"/><line x1="210" y1="86" x2="208" y2="108" stroke="#1c2240" stroke-width="11" stroke-linecap="round" stroke-linejoin="round"/><path d="M246 44 C252 30 260 38 256 54 C252 52 247 48 246 44Z" fill="#1c2240"/><circle cx="232" cy="48" r="13" fill="#1c2240"/>
<text x="150" y="196" text-anchor="middle" fill="#ff5c5c" font-family="'Segoe UI',system-ui,sans-serif" font-size="13" font-weight="700" letter-spacing="0.1em">VÝCHOZÍ</text>
<text x="150" y="211" text-anchor="middle" fill="#8090b0" font-family="'Segoe UI',system-ui,sans-serif" font-size="8.5" font-weight="400">výchozí poloha</text>
</svg>