<svg xmlns="http://www.w3.org/2000/svg" viewBox="0 0 200 120" fill="none" aria-hidden="true">
<rect width="200" height="120" fill="#141414"/>
<line x1="10" y1="108" x2="190" y2="108" stroke="#2a2a2a" stroke-width="2"/>
<g transform="translate(34,4) scale(1.12)"><circle cx="70" cy="38" r="6" stroke="#5b9fd4" stroke-width="2"/><path d="M70 44 L58 48 L46 50" stroke="#5b9fd4" stroke-width="2.5" stroke-linecap="round" stroke-linejoin="round"/><path d="M46 50 L42 72" stroke="#5b9fd4" stroke-width="2.5" stroke-linecap="round" stroke-linejoin="round"/><path d="M46 50 L52 72" stroke="#5b9fd4" stroke-width="2.5" stroke-linecap="round" stroke-linejoin="round"/><path d="M58 48 L54 72" stroke="#5b9fd4" stroke-width="2.5" stroke-linecap="round" stroke-linejoin="round"/><path d="M58 48 L62 72" stroke="#5b9fd4" stroke-width="2.5" stroke-linecap="round" stroke-linejoin="round"/><path d="M70 44 L82 36" stroke="#5b9fd4" stroke-width="2" stroke-linecap="round" stroke-linejoin="round"/><path d="M46 50 L34 58" stroke="#5b9fd4" stroke-width="2" stroke-linecap="round" stroke-linejoin="round"/><circle cx="42" cy="72" r="3.5" fill="#5b9fd4"/><circle cx="52" cy="72" r="3.5" fill="#5b9fd4"/><circle cx="54" cy="72" r="3.5" fill="#5b9fd4"/><circle cx="62" cy="72" r="3.5" fill="#5b9fd4"/><circle cx="82" cy="36" r="3.5" fill="#5b9fd4"/><circle cx="34" cy="58" r="3.5" fill="#5b9fd4"/></g>
</svg>