<svg xmlns="http://www.w3.org/2000/svg" viewBox="0 0 300 212" fill="none" aria-hidden="true">
<rect width="300" height="212" fill="#0d1019"/>
<rect x="4" y="4" width="292" height="204" rx="14" fill="#131826" stroke="#283249" stroke-width="1"/>
<line x1="148" y1="52" x2="134" y2="80" stroke="#c5e86d" stroke-width="11" stroke-linecap="round" stroke-linejoin="round"/><line x1="134" y1="80" x2="132" y2="108" stroke="#c5e86d" stroke-width="9" stroke-linecap="round" stroke-linejoin="round"/><line x1="148" y1="102" x2="142" y2="80" stroke="#c5e86d" stroke-width="14" stroke-linecap="round" stroke-linejoin="round"/><line x1="142" y1="80" x2="140" y2="104" stroke="#c5e86d" stroke-width="11" stroke-linecap="round" stroke-linejoin="round"/><line x1="137" y1="105" x2="154" y2="105" stroke="#c5e86d" stroke-width="8" stroke-linecap="round" stroke-linejoin="round"/><line x1="148" y1="52" x2="148" y2="102" stroke="#c5e86d" stroke-width="18" stroke-linecap="round" stroke-linejoin="round"/><line x1="148" y1="102" x2="152" y2="140" stroke="#c5e86d" stroke-width="16" stroke-linecap="round" stroke-linejoin="round"/><line x1="152" y1="140" x2="152" y2="172" stroke="#c5e86d" stroke-width="13" stroke-linecap="round" stroke-linejoin="round"/><line x1="149" y1="173" x2="166" y2="173" stroke="#c5e86d" stroke-width="9" stroke-linecap="round" stroke-linejoin="round"/><line x1="148" y1="52" x2="160" y2="76" stroke="#c5e86d" stroke-width="13" stroke-linecap="round" stroke-linejoin="round"/><line x1="160" y1="76" x2="162" y2="56" stroke="#c5e86d" stroke-width="11" stroke-linecap="round" stroke-linejoin="round"/><path d="M134 18 C128 4 120 12 124 28 C128 26 133 22 134 18Z" fill="#c5e86d"/><circle cx="148" cy="22" r="13" fill="#c5e86d"/>
<text x="150" y="190" text-anchor="middle" fill="#d8e4f8" font-family="'Segoe UI',system-ui,sans-serif" font-size="13.5" font-weight="700" letter-spacing="0.09em">ZÁVĚR</text>
<text x="150" y="207" text-anchor="middle" fill="#5e7299" font-family="'Segoe UI',system-ui,sans-serif" font-size="9" font-weight="400">kontrolovaný návrat</text>
</svg>