<svg xmlns="http://www.w3.org/2000/svg" viewBox="0 0 300 212" fill="none" aria-hidden="true">
<defs>
  <filter id="sfGlow" x="-40%" y="-40%" width="180%" height="180%">
    <feGaussianBlur stdDeviation="0.45" result="b"/>
    <feMerge>
      <feMergeNode in="b"/>
      <feMergeNode in="SourceGraphic"/>
    </feMerge>
  </filter>
</defs>
<rect width="300" height="212" fill="#0a0c10"/>
<rect x="5" y="5" width="290" height="202" rx="16" ry="16" fill="#131822" stroke="#3a4558" stroke-width="1.2"/>
<g transform="translate(50,12)">
<line x1="8" y1="108" x2="192" y2="108" stroke="#4a5f82" stroke-width="1" opacity="0.4"/>
<g filter="url(#sfGlow)"><circle cx="166" cy="40" r="7.5" stroke="#ff5c5c" stroke-width="1.85" fill="none" opacity="0.98"/><path d="M166 47.5 L136 50 L88 56" stroke="#ff5c5c" stroke-width="2.15" stroke-linecap="round" stroke-linejoin="round"/><path d="M88 56 L70 72 L60 108" stroke="#ff5c5c" stroke-width="2.15" stroke-linecap="round" stroke-linejoin="round"/><path d="M88 56 L92 72 L98 108" stroke="#ff5c5c" stroke-width="2.15" stroke-linecap="round" stroke-linejoin="round"/><path d="M88 56 L104 26 L122 38" stroke="#ff5c5c" stroke-width="2.15" stroke-linecap="round" stroke-linejoin="round"/><circle cx="136" cy="50" r="2.5" fill="#ff5c5c"/><circle cx="88" cy="56" r="2.5" fill="#ff5c5c"/><circle cx="70" cy="72" r="2.5" fill="#ff5c5c"/><circle cx="92" cy="72" r="2.5" fill="#ff5c5c"/><circle cx="60" cy="108" r="2.5" fill="#ff5c5c"/><circle cx="98" cy="108" r="2.5" fill="#ff5c5c"/><circle cx="104" cy="26" r="2.5" fill="#ff5c5c"/><circle cx="122" cy="38" r="2.5" fill="#ff5c5c"/></g>
</g>


<text x="150" y="184" text-anchor="middle" fill="#eef2f9" font-family="Segoe UI,system-ui,sans-serif" font-size="13.5" font-weight="700" letter-spacing="0.14em">VÝCHOZÍ</text>

</svg>