<svg xmlns="http://www.w3.org/2000/svg" viewBox="0 0 200 120" fill="none" aria-hidden="true">
<defs>
  <filter id="sfGlow" x="-35%" y="-35%" width="170%" height="170%">
    <feGaussianBlur stdDeviation="0.5" result="b"/>
    <feMerge>
      <feMergeNode in="b"/>
      <feMergeNode in="SourceGraphic"/>
    </feMerge>
  </filter>
</defs>
<rect width="200" height="120" fill="#141414"/>
<line x1="8" y1="108" x2="192" y2="108" stroke="#4a5570" stroke-width="1.2" opacity="0.45"/>
<g filter="url(#sfGlow)"><circle cx="166" cy="40" r="7.5" stroke="#ff5c5c" stroke-width="1.85" fill="none" opacity="0.98"/><path d="M166 47.5 L136 50 L88 56" stroke="#ff5c5c" stroke-width="2.15" stroke-linecap="round" stroke-linejoin="round"/><path d="M88 56 L70 72 L60 108" stroke="#ff5c5c" stroke-width="2.15" stroke-linecap="round" stroke-linejoin="round"/><path d="M88 56 L92 72 L98 108" stroke="#ff5c5c" stroke-width="2.15" stroke-linecap="round" stroke-linejoin="round"/><path d="M88 56 L104 26 L122 38" stroke="#ff5c5c" stroke-width="2.15" stroke-linecap="round" stroke-linejoin="round"/><circle cx="136" cy="50" r="2.5" fill="#ff5c5c"/><circle cx="88" cy="56" r="2.5" fill="#ff5c5c"/><circle cx="70" cy="72" r="2.5" fill="#ff5c5c"/><circle cx="92" cy="72" r="2.5" fill="#ff5c5c"/><circle cx="60" cy="108" r="2.5" fill="#ff5c5c"/><circle cx="98" cy="108" r="2.5" fill="#ff5c5c"/><circle cx="104" cy="26" r="2.5" fill="#ff5c5c"/><circle cx="122" cy="38" r="2.5" fill="#ff5c5c"/></g>
</svg>