<svg xmlns="http://www.w3.org/2000/svg" viewBox="0 0 200 120" fill="none" aria-hidden="true">
<defs>
  <filter id="sfGlow" x="-35%" y="-35%" width="170%" height="170%">
    <feGaussianBlur stdDeviation="0.5" result="b"/>
    <feMerge>
      <feMergeNode in="b"/>
      <feMergeNode in="SourceGraphic"/>
    </feMerge>
  </filter>
</defs>
<rect width="200" height="120" fill="#141414"/>
<line x1="8" y1="108" x2="192" y2="108" stroke="#4a5570" stroke-width="1.2" opacity="0.45"/>
<g filter="url(#sfGlow)"><circle cx="48" cy="40" r="7" stroke="#5b9fd4" stroke-width="1.85" fill="none" opacity="0.98"/><path d="M48 47 L62 58 L102 72" stroke="#5b9fd4" stroke-width="2.2" stroke-linecap="round" stroke-linejoin="round"/><path d="M102 72 L112 108" stroke="#5b9fd4" stroke-width="2.2" stroke-linecap="round" stroke-linejoin="round"/><path d="M102 72 L128 108" stroke="#5b9fd4" stroke-width="2.2" stroke-linecap="round" stroke-linejoin="round"/><path d="M62 58 L54 88 L46 108" stroke="#5b9fd4" stroke-width="2.2" stroke-linecap="round" stroke-linejoin="round"/><path d="M62 58 L58 90 L60 108" stroke="#5b9fd4" stroke-width="2.2" stroke-linecap="round" stroke-linejoin="round"/><circle cx="62" cy="58" r="2.5" fill="#5b9fd4"/><circle cx="102" cy="72" r="2.5" fill="#5b9fd4"/><circle cx="112" cy="108" r="2.5" fill="#5b9fd4"/><circle cx="128" cy="108" r="2.5" fill="#5b9fd4"/><circle cx="54" cy="88" r="2.5" fill="#5b9fd4"/><circle cx="58" cy="90" r="2.5" fill="#5b9fd4"/><circle cx="46" cy="108" r="2.5" fill="#5b9fd4"/><circle cx="60" cy="108" r="2.5" fill="#5b9fd4"/></g>
</svg>