<svg xmlns="http://www.w3.org/2000/svg" viewBox="0 0 300 212" fill="none" aria-hidden="true">
<defs>
  <filter id="sfGlow" x="-40%" y="-40%" width="180%" height="180%">
    <feGaussianBlur stdDeviation="0.45" result="b"/>
    <feMerge>
      <feMergeNode in="b"/>
      <feMergeNode in="SourceGraphic"/>
    </feMerge>
  </filter>
</defs>
<rect width="300" height="212" fill="#0a0c10"/>
<rect x="5" y="5" width="290" height="202" rx="16" ry="16" fill="#131822" stroke="#3a4558" stroke-width="1.2"/>
<g transform="translate(28,12)">
<line x1="8" y1="108" x2="192" y2="108" stroke="#4a5f82" stroke-width="1" opacity="0.4"/>
<g filter="url(#sfGlow)"><line x1="62" y1="58" x2="102" y2="72" stroke="#5b9fd4" stroke-width="12" stroke-linecap="round" opacity="0.15"/><circle cx="48" cy="40" r="7" stroke="#5b9fd4" stroke-width="1.85" fill="none" opacity="0.98"/><path d="M54 39 Q62 41 59 49" stroke="#5b9fd4" stroke-width="1.1" fill="none" opacity="0.42"/><path d="M48 47 L62 58 L102 72" stroke="#5b9fd4" stroke-width="2.2" stroke-linecap="round" stroke-linejoin="round"/><path d="M102 72 L112 108" stroke="#5b9fd4" stroke-width="2.2" stroke-linecap="round" stroke-linejoin="round"/><path d="M102 72 L128 108" stroke="#5b9fd4" stroke-width="2.2" stroke-linecap="round" stroke-linejoin="round"/><path d="M62 58 L54 88 L46 108" stroke="#5b9fd4" stroke-width="2.2" stroke-linecap="round" stroke-linejoin="round"/><path d="M62 58 L58 90 L60 108" stroke="#5b9fd4" stroke-width="2.2" stroke-linecap="round" stroke-linejoin="round"/><circle cx="62" cy="58" r="2.5" fill="#5b9fd4"/><circle cx="102" cy="72" r="2.5" fill="#5b9fd4"/><circle cx="112" cy="108" r="2.5" fill="#5b9fd4"/><circle cx="128" cy="108" r="2.5" fill="#5b9fd4"/><circle cx="54" cy="88" r="2.5" fill="#5b9fd4"/><circle cx="58" cy="90" r="2.5" fill="#5b9fd4"/><circle cx="46" cy="108" r="2.5" fill="#5b9fd4"/><circle cx="60" cy="108" r="2.5" fill="#5b9fd4"/></g>
</g>
<g transform="translate(18,118)" stroke="#e8edf7" stroke-width="2.2" stroke-linecap="round" stroke-linejoin="round" fill="none" opacity="0.92">
<path d="M0 22 L0 0 M-6 8 L0 0 L6 8"/></g><g transform="translate(14,92)" stroke="#5b9fd4" fill="none" stroke-width="1.35" opacity="0.9">
<path d="M2 8 C-2 4 -2 0 2 -2"/><path d="M12 8 C16 4 16 0 12 -2"/></g><text x="18" y="88" fill="#9aa8c4" font-family="Segoe UI,system-ui,sans-serif" font-size="8.5">výdech</text><path d="M118 78 Q138 68 158 78" stroke="#5b9fd4" fill="none" stroke-width="1.5" opacity="0.55" stroke-dasharray="3 2"/><text x="138" y="72" text-anchor="middle" fill="#5b9fd4" font-family="Segoe UI,system-ui,sans-serif" font-size="7.5" opacity="0.85">břicho</text>
<g transform="translate(206,22)" opacity="0.97">
<rect x="0" y="0" width="88" height="96" rx="8" fill="#141a24" stroke="#3d4a62" stroke-width="1"/>
<text x="44" y="14" text-anchor="middle" fill="#8b98b3" font-family="Segoe UI,system-ui,sans-serif" font-size="7.5" font-weight="600">LOPATKY</text>
<path d="M10 52 Q18 62 26 58 L32 48" stroke="#e85a5a" stroke-width="1.6" fill="none" stroke-linecap="round"/>
<circle cx="20" cy="50" r="2.5" fill="#e85a5a"/>
<text x="22" y="68" text-anchor="middle" fill="#e85a5a" font-family="Segoe UI,system-ui,sans-serif" font-size="7">špatně</text>
<path d="M52 50 L68 48 L82 50" stroke="#5b9fd4" stroke-width="1.6" fill="none" stroke-linecap="round"/>
<circle cx="66" cy="48" r="2.5" fill="#5b9fd4"/>
<text x="68" y="68" text-anchor="middle" fill="#5b9fd4" font-family="Segoe UI,system-ui,sans-serif" font-size="7">správně</text>
<text x="44" y="88" text-anchor="middle" fill="#6a7894" font-family="Segoe UI,system-ui,sans-serif" font-size="6.2">rovná záda</text>
</g>
<text x="150" y="184" text-anchor="middle" fill="#eef2f9" font-family="Segoe UI,system-ui,sans-serif" font-size="13.5" font-weight="700" letter-spacing="0.14em">ZÁVĚR</text>
<text x="150" y="202" text-anchor="middle" fill="#8b9ab8" font-family="Segoe UI,system-ui,sans-serif" font-size="9.5">Výdech nahoru · zpevni střed</text>
</svg>