<svg xmlns="http://www.w3.org/2000/svg" viewBox="0 0 300 212" fill="none" aria-hidden="true">
<defs>
  <filter id="sfGlow" x="-40%" y="-40%" width="180%" height="180%">
    <feGaussianBlur stdDeviation="0.45" result="b"/>
    <feMerge>
      <feMergeNode in="b"/>
      <feMergeNode in="SourceGraphic"/>
    </feMerge>
  </filter>
</defs>
<rect width="300" height="212" fill="#0a0c10"/>
<rect x="5" y="5" width="290" height="202" rx="16" ry="16" fill="#131822" stroke="#3a4558" stroke-width="1.2"/>
<g transform="translate(50,12)">
<line x1="8" y1="108" x2="192" y2="108" stroke="#4a5f82" stroke-width="1" opacity="0.4"/>
<g filter="url(#sfGlow)"><line x1="62" y1="54" x2="102" y2="70" stroke="#5b9fd4" stroke-width="12" stroke-linecap="round" opacity="0.15"/><circle cx="48" cy="36" r="7" stroke="#5b9fd4" stroke-width="1.85" fill="none" opacity="0.98"/><path d="M54 35 Q62 37 59 45" stroke="#5b9fd4" stroke-width="1.1" fill="none" opacity="0.42"/><path d="M48 43 L62 54 L102 70" stroke="#5b9fd4" stroke-width="2.2" stroke-linecap="round" stroke-linejoin="round"/><path d="M102 70 L112 108" stroke="#5b9fd4" stroke-width="2.2" stroke-linecap="round" stroke-linejoin="round"/><path d="M102 70 L128 108" stroke="#5b9fd4" stroke-width="2.2" stroke-linecap="round" stroke-linejoin="round"/><path d="M62 54 L54 88 L46 108" stroke="#5b9fd4" stroke-width="2.2" stroke-linecap="round" stroke-linejoin="round"/><path d="M62 54 L58 90 L60 108" stroke="#5b9fd4" stroke-width="2.2" stroke-linecap="round" stroke-linejoin="round"/><circle cx="62" cy="54" r="2.5" fill="#5b9fd4"/><circle cx="102" cy="70" r="2.5" fill="#5b9fd4"/><circle cx="112" cy="108" r="2.5" fill="#5b9fd4"/><circle cx="128" cy="108" r="2.5" fill="#5b9fd4"/><circle cx="54" cy="88" r="2.5" fill="#5b9fd4"/><circle cx="58" cy="90" r="2.5" fill="#5b9fd4"/><circle cx="46" cy="108" r="2.5" fill="#5b9fd4"/><circle cx="60" cy="108" r="2.5" fill="#5b9fd4"/></g>
</g>


<text x="150" y="184" text-anchor="middle" fill="#eef2f9" font-family="Segoe UI,system-ui,sans-serif" font-size="13.5" font-weight="700" letter-spacing="0.14em">VÝCHOZÍ</text>

</svg>