<svg xmlns="http://www.w3.org/2000/svg" viewBox="0 0 200 120" fill="none" aria-hidden="true">
<defs>
  <filter id="sfGlow" x="-35%" y="-35%" width="170%" height="170%">
    <feGaussianBlur stdDeviation="0.5" result="b"/>
    <feMerge>
      <feMergeNode in="b"/>
      <feMergeNode in="SourceGraphic"/>
    </feMerge>
  </filter>
</defs>
<rect width="200" height="120" fill="#141414"/>
<line x1="8" y1="108" x2="192" y2="108" stroke="#4a5570" stroke-width="1.2" opacity="0.45"/>
<g filter="url(#sfGlow)"><circle cx="100" cy="20" r="7.5" stroke="#c5e86d" stroke-width="1.85" fill="none" opacity="0.98"/><path d="M100 27.5 L100 34 L100 50" stroke="#c5e86d" stroke-width="2.15" stroke-linecap="round" stroke-linejoin="round"/><path d="M100 50 L86 108" stroke="#c5e86d" stroke-width="2.15" stroke-linecap="round" stroke-linejoin="round"/><path d="M100 50 L114 108" stroke="#c5e86d" stroke-width="2.15" stroke-linecap="round" stroke-linejoin="round"/><path d="M100 34 L82 40" stroke="#c5e86d" stroke-width="2.15" stroke-linecap="round" stroke-linejoin="round"/><path d="M100 34 L118 40" stroke="#c5e86d" stroke-width="2.15" stroke-linecap="round" stroke-linejoin="round"/><circle cx="100" cy="34" r="2.5" fill="#c5e86d"/><circle cx="100" cy="50" r="2.5" fill="#c5e86d"/><circle cx="86" cy="108" r="2.5" fill="#c5e86d"/><circle cx="114" cy="108" r="2.5" fill="#c5e86d"/><circle cx="82" cy="40" r="2.5" fill="#c5e86d"/><circle cx="118" cy="40" r="2.5" fill="#c5e86d"/><path d="M100 50 L112 82 L112 108" stroke="#c5e86d" stroke-width="2.15" stroke-linecap="round" stroke-linejoin="round"/><circle cx="112" cy="108" r="2.5" fill="#c5e86d"/></g>
</svg>