<svg xmlns="http://www.w3.org/2000/svg" viewBox="0 0 300 212" fill="none" aria-hidden="true">
<rect width="300" height="212" fill="#0d1019"/>
<rect x="4" y="4" width="292" height="204" rx="14" fill="#131826" stroke="#283249" stroke-width="1"/>
<line x1="150" y1="52" x2="122" y2="30" stroke="#ff5c5c" stroke-width="11" stroke-linecap="round" stroke-linejoin="round"/><line x1="122" y1="30" x2="116" y2="12" stroke="#ff5c5c" stroke-width="9" stroke-linecap="round" stroke-linejoin="round"/><line x1="150" y1="102" x2="124" y2="142" stroke="#ff5c5c" stroke-width="14" stroke-linecap="round" stroke-linejoin="round"/><line x1="124" y1="142" x2="120" y2="172" stroke="#ff5c5c" stroke-width="11" stroke-linecap="round" stroke-linejoin="round"/><line x1="117" y1="173" x2="134" y2="173" stroke="#ff5c5c" stroke-width="8" stroke-linecap="round" stroke-linejoin="round"/><line x1="150" y1="52" x2="150" y2="102" stroke="#ff5c5c" stroke-width="18" stroke-linecap="round" stroke-linejoin="round"/><line x1="150" y1="102" x2="176" y2="144" stroke="#ff5c5c" stroke-width="16" stroke-linecap="round" stroke-linejoin="round"/><line x1="176" y1="144" x2="180" y2="172" stroke="#ff5c5c" stroke-width="13" stroke-linecap="round" stroke-linejoin="round"/><line x1="177" y1="173" x2="194" y2="173" stroke="#ff5c5c" stroke-width="9" stroke-linecap="round" stroke-linejoin="round"/><line x1="150" y1="52" x2="178" y2="30" stroke="#ff5c5c" stroke-width="13" stroke-linecap="round" stroke-linejoin="round"/><line x1="178" y1="30" x2="184" y2="12" stroke="#ff5c5c" stroke-width="11" stroke-linecap="round" stroke-linejoin="round"/><path d="M136 18 C130 4 122 12 126 28 C130 26 135 22 136 18Z" fill="#ff5c5c"/><circle cx="150" cy="22" r="13" fill="#ff5c5c"/>
<text x="150" y="190" text-anchor="middle" fill="#d8e4f8" font-family="'Segoe UI',system-ui,sans-serif" font-size="13.5" font-weight="700" letter-spacing="0.09em">PRŮBĚH</text>
<text x="150" y="207" text-anchor="middle" fill="#5e7299" font-family="'Segoe UI',system-ui,sans-serif" font-size="9" font-weight="400">plynulý pohyb · bez výskoku</text>
</svg>