<svg xmlns="http://www.w3.org/2000/svg" viewBox="0 0 200 120" fill="none" aria-hidden="true">
<defs>
  <filter id="sfGlow" x="-35%" y="-35%" width="170%" height="170%">
    <feGaussianBlur stdDeviation="0.5" result="b"/>
    <feMerge>
      <feMergeNode in="b"/>
      <feMergeNode in="SourceGraphic"/>
    </feMerge>
  </filter>
</defs>
<rect width="200" height="120" fill="#141414"/>
<line x1="8" y1="108" x2="192" y2="108" stroke="#4a5570" stroke-width="1.2" opacity="0.45"/>
<g filter="url(#sfGlow)"><circle cx="46" cy="38" r="7" stroke="#5b9fd4" stroke-width="1.85" fill="none" opacity="0.98"/><path d="M46 45 L54 48 L66 58 L110 68" stroke="#5b9fd4" stroke-width="2.2" stroke-linecap="round" stroke-linejoin="round"/><path d="M110 68 L118 108" stroke="#5b9fd4" stroke-width="2.2" stroke-linecap="round" stroke-linejoin="round"/><path d="M110 68 L132 108" stroke="#5b9fd4" stroke-width="2.2" stroke-linecap="round" stroke-linejoin="round"/><path d="M66 58 L58 106 L52 108" stroke="#5b9fd4" stroke-width="2.2" stroke-linecap="round" stroke-linejoin="round"/><path d="M66 58 L62 106 L66 108" stroke="#5b9fd4" stroke-width="2.2" stroke-linecap="round" stroke-linejoin="round"/><circle cx="54" cy="48" r="2.5" fill="#5b9fd4"/><circle cx="66" cy="58" r="2.5" fill="#5b9fd4"/><circle cx="110" cy="68" r="2.5" fill="#5b9fd4"/><circle cx="118" cy="108" r="2.5" fill="#5b9fd4"/><circle cx="132" cy="108" r="2.5" fill="#5b9fd4"/><circle cx="58" cy="106" r="2.5" fill="#5b9fd4"/><circle cx="52" cy="108" r="2.5" fill="#5b9fd4"/><circle cx="62" cy="106" r="2.5" fill="#5b9fd4"/><circle cx="66" cy="108" r="2.5" fill="#5b9fd4"/></g>
</svg>