<svg xmlns="http://www.w3.org/2000/svg" viewBox="0 0 300 212" fill="none" aria-hidden="true">
<rect width="300" height="212" fill="#0d1019"/>
<rect x="4" y="4" width="292" height="204" rx="14" fill="#131826" stroke="#283249" stroke-width="1"/>
<line x1="58" y1="90" x2="60" y2="80" stroke="#c5e86d" stroke-width="11" stroke-linecap="round" stroke-linejoin="round"/><line x1="60" y1="80" x2="82" y2="74" stroke="#c5e86d" stroke-width="9" stroke-linecap="round" stroke-linejoin="round"/><line x1="128" y1="86" x2="162" y2="96" stroke="#c5e86d" stroke-width="14" stroke-linecap="round" stroke-linejoin="round"/><line x1="162" y1="96" x2="190" y2="96" stroke="#c5e86d" stroke-width="11" stroke-linecap="round" stroke-linejoin="round"/><line x1="58" y1="90" x2="128" y2="86" stroke="#c5e86d" stroke-width="18" stroke-linecap="round" stroke-linejoin="round"/><line x1="128" y1="86" x2="164" y2="92" stroke="#c5e86d" stroke-width="16" stroke-linecap="round" stroke-linejoin="round"/><line x1="164" y1="92" x2="192" y2="92" stroke="#c5e86d" stroke-width="13" stroke-linecap="round" stroke-linejoin="round"/><line x1="58" y1="90" x2="58" y2="76" stroke="#c5e86d" stroke-width="13" stroke-linecap="round" stroke-linejoin="round"/><line x1="58" y1="76" x2="80" y2="70" stroke="#c5e86d" stroke-width="11" stroke-linecap="round" stroke-linejoin="round"/><path d="M20 82 C14 68 6 76 10 92 C14 90 19 86 20 82Z" fill="#c5e86d"/><circle cx="34" cy="86" r="13" fill="#c5e86d"/>
<text x="150" y="190" text-anchor="middle" fill="#d8e4f8" font-family="'Segoe UI',system-ui,sans-serif" font-size="13.5" font-weight="700" letter-spacing="0.09em">VÝCHOZÍ</text>
<text x="150" y="207" text-anchor="middle" fill="#5e7299" font-family="'Segoe UI',system-ui,sans-serif" font-size="9" font-weight="400">výchozí poloha</text>
</svg>