<svg xmlns="http://www.w3.org/2000/svg" viewBox="0 0 300 220" fill="none" aria-hidden="true">
<rect width="300" height="220" fill="#edf0f8"/>
<rect x="0" y="176" width="300" height="44" fill="#5b9fd4" opacity="0.08"/>
<line x1="0" y1="176" x2="300" y2="176" stroke="#5b9fd4" stroke-width="1.5" opacity="0.3"/>
<line x1="150" y1="52" x2="122" y2="30" stroke="#1c2240" stroke-width="11" stroke-linecap="round" stroke-linejoin="round"/><line x1="122" y1="30" x2="116" y2="12" stroke="#1c2240" stroke-width="9" stroke-linecap="round" stroke-linejoin="round"/><line x1="150" y1="102" x2="124" y2="142" stroke="#1c2240" stroke-width="14" stroke-linecap="round" stroke-linejoin="round"/><line x1="124" y1="142" x2="120" y2="170" stroke="#1c2240" stroke-width="11" stroke-linecap="round" stroke-linejoin="round"/><line x1="117" y1="171" x2="134" y2="171" stroke="#1c2240" stroke-width="8" stroke-linecap="round" stroke-linejoin="round"/><line x1="150" y1="52" x2="150" y2="102" stroke="#1c2240" stroke-width="18" stroke-linecap="round" stroke-linejoin="round"/><line x1="150" y1="102" x2="176" y2="144" stroke="#1c2240" stroke-width="16" stroke-linecap="round" stroke-linejoin="round"/><line x1="176" y1="144" x2="180" y2="170" stroke="#1c2240" stroke-width="13" stroke-linecap="round" stroke-linejoin="round"/><line x1="177" y1="171" x2="194" y2="171" stroke="#1c2240" stroke-width="9" stroke-linecap="round" stroke-linejoin="round"/><line x1="150" y1="52" x2="178" y2="30" stroke="#1c2240" stroke-width="13" stroke-linecap="round" stroke-linejoin="round"/><line x1="178" y1="30" x2="184" y2="12" stroke="#1c2240" stroke-width="11" stroke-linecap="round" stroke-linejoin="round"/><path d="M136 18 C130 4 122 12 126 28 C130 26 135 22 136 18Z" fill="#1c2240"/><circle cx="150" cy="22" r="13" fill="#1c2240"/>
<text x="150" y="196" text-anchor="middle" fill="#5b9fd4" font-family="'Segoe UI',system-ui,sans-serif" font-size="13" font-weight="700" letter-spacing="0.1em">PRŮBĚH</text>
<text x="150" y="211" text-anchor="middle" fill="#8090b0" font-family="'Segoe UI',system-ui,sans-serif" font-size="8.5" font-weight="400">plynulý pohyb · bez výskoku</text>
</svg>