<svg xmlns="http://www.w3.org/2000/svg" viewBox="0 0 300 212" fill="none" aria-hidden="true">
<defs>
  <filter id="sfGlow" x="-40%" y="-40%" width="180%" height="180%">
    <feGaussianBlur stdDeviation="0.45" result="b"/>
    <feMerge>
      <feMergeNode in="b"/>
      <feMergeNode in="SourceGraphic"/>
    </feMerge>
  </filter>
</defs>
<rect width="300" height="212" fill="#0a0c10"/>
<rect x="5" y="5" width="290" height="202" rx="16" ry="16" fill="#131822" stroke="#3a4558" stroke-width="1.2"/>
<g transform="translate(50,12)">
<line x1="8" y1="108" x2="192" y2="108" stroke="#4a5f82" stroke-width="1" opacity="0.4"/>
<g filter="url(#sfGlow)"><line x1="52" y1="50" x2="108" y2="68" stroke="#5b9fd4" stroke-width="11" stroke-linecap="round" opacity="0.14"/><circle cx="44" cy="40" r="7" stroke="#5b9fd4" stroke-width="1.85" fill="none" opacity="0.98"/><path d="M44 47 L52 50 L64 58 L108 68" stroke="#5b9fd4" stroke-width="2.2" stroke-linecap="round" stroke-linejoin="round"/><path d="M108 68 L116 108" stroke="#5b9fd4" stroke-width="2.2" stroke-linecap="round" stroke-linejoin="round"/><path d="M108 68 L130 108" stroke="#5b9fd4" stroke-width="2.2" stroke-linecap="round" stroke-linejoin="round"/><path d="M64 58 L56 84 L50 108" stroke="#5b9fd4" stroke-width="2.2" stroke-linecap="round" stroke-linejoin="round"/><path d="M64 58 L60 86 L66 108" stroke="#5b9fd4" stroke-width="2.2" stroke-linecap="round" stroke-linejoin="round"/><circle cx="52" cy="50" r="2.5" fill="#5b9fd4"/><circle cx="64" cy="58" r="2.5" fill="#5b9fd4"/><circle cx="108" cy="68" r="2.5" fill="#5b9fd4"/><circle cx="116" cy="108" r="2.5" fill="#5b9fd4"/><circle cx="130" cy="108" r="2.5" fill="#5b9fd4"/><circle cx="56" cy="84" r="2.5" fill="#5b9fd4"/><circle cx="60" cy="86" r="2.5" fill="#5b9fd4"/><circle cx="50" cy="108" r="2.5" fill="#5b9fd4"/><circle cx="66" cy="108" r="2.5" fill="#5b9fd4"/></g>
</g>


<text x="150" y="184" text-anchor="middle" fill="#eef2f9" font-family="Segoe UI,system-ui,sans-serif" font-size="13.5" font-weight="700" letter-spacing="0.14em">VÝCHOZÍ</text>

</svg>