<svg xmlns="http://www.w3.org/2000/svg" viewBox="0 0 300 220" fill="none" aria-hidden="true">
<rect width="300" height="220" fill="#edf0f8"/>
<rect x="0" y="176" width="300" height="44" fill="#c5e86d" opacity="0.08"/>
<line x1="0" y1="176" x2="300" y2="176" stroke="#c5e86d" stroke-width="1.5" opacity="0.3"/>
<line x1="208" y1="82" x2="234" y2="68" stroke="#1c2240" stroke-width="11" stroke-linecap="round" stroke-linejoin="round"/><line x1="234" y1="68" x2="254" y2="56" stroke="#1c2240" stroke-width="9" stroke-linecap="round" stroke-linejoin="round"/><line x1="130" y1="84" x2="88" y2="84" stroke="#1c2240" stroke-width="14" stroke-linecap="round" stroke-linejoin="round"/><line x1="88" y1="84" x2="52" y2="78" stroke="#1c2240" stroke-width="11" stroke-linecap="round" stroke-linejoin="round"/><line x1="208" y1="82" x2="130" y2="84" stroke="#1c2240" stroke-width="18" stroke-linecap="round" stroke-linejoin="round"/><line x1="130" y1="84" x2="90" y2="80" stroke="#1c2240" stroke-width="16" stroke-linecap="round" stroke-linejoin="round"/><line x1="90" y1="80" x2="54" y2="74" stroke="#1c2240" stroke-width="13" stroke-linecap="round" stroke-linejoin="round"/><line x1="208" y1="82" x2="232" y2="64" stroke="#1c2240" stroke-width="13" stroke-linecap="round" stroke-linejoin="round"/><line x1="232" y1="64" x2="252" y2="52" stroke="#1c2240" stroke-width="11" stroke-linecap="round" stroke-linejoin="round"/><path d="M248 70 C254 56 262 64 258 80 C254 78 249 74 248 70Z" fill="#1c2240"/><circle cx="234" cy="74" r="13" fill="#1c2240"/>
<text x="150" y="196" text-anchor="middle" fill="#c5e86d" font-family="'Segoe UI',system-ui,sans-serif" font-size="13" font-weight="700" letter-spacing="0.1em">PRŮBĚH</text>
<text x="150" y="211" text-anchor="middle" fill="#8090b0" font-family="'Segoe UI',system-ui,sans-serif" font-size="8.5" font-weight="400">zpevni střed · pomalu</text>
</svg>