<svg xmlns="http://www.w3.org/2000/svg" viewBox="0 0 300 212" fill="none" aria-hidden="true">
<rect width="300" height="212" fill="#0d1019"/>
<rect x="4" y="4" width="292" height="204" rx="14" fill="#131826" stroke="#283249" stroke-width="1"/>
<line x1="162" y1="52" x2="150" y2="78" stroke="#e8943a" stroke-width="11" stroke-linecap="round" stroke-linejoin="round"/><line x1="150" y1="78" x2="148" y2="106" stroke="#e8943a" stroke-width="9" stroke-linecap="round" stroke-linejoin="round"/><line x1="162" y1="102" x2="157" y2="138" stroke="#e8943a" stroke-width="14" stroke-linecap="round" stroke-linejoin="round"/><line x1="157" y1="138" x2="156" y2="172" stroke="#e8943a" stroke-width="11" stroke-linecap="round" stroke-linejoin="round"/><line x1="153" y1="173" x2="170" y2="173" stroke="#e8943a" stroke-width="8" stroke-linecap="round" stroke-linejoin="round"/><line x1="162" y1="52" x2="162" y2="102" stroke="#e8943a" stroke-width="18" stroke-linecap="round" stroke-linejoin="round"/><line x1="162" y1="102" x2="167" y2="140" stroke="#e8943a" stroke-width="16" stroke-linecap="round" stroke-linejoin="round"/><line x1="167" y1="140" x2="168" y2="172" stroke="#e8943a" stroke-width="13" stroke-linecap="round" stroke-linejoin="round"/><line x1="165" y1="173" x2="182" y2="173" stroke="#e8943a" stroke-width="9" stroke-linecap="round" stroke-linejoin="round"/><line x1="162" y1="52" x2="176" y2="80" stroke="#e8943a" stroke-width="13" stroke-linecap="round" stroke-linejoin="round"/><line x1="176" y1="80" x2="178" y2="108" stroke="#e8943a" stroke-width="11" stroke-linecap="round" stroke-linejoin="round"/><path d="M148 18 C142 4 134 12 138 28 C142 26 147 22 148 18Z" fill="#e8943a"/><circle cx="162" cy="22" r="13" fill="#e8943a"/>
<text x="150" y="190" text-anchor="middle" fill="#d8e4f8" font-family="'Segoe UI',system-ui,sans-serif" font-size="13.5" font-weight="700" letter-spacing="0.09em">ZÁVĚR</text>
<text x="150" y="207" text-anchor="middle" fill="#5e7299" font-family="'Segoe UI',system-ui,sans-serif" font-size="9" font-weight="400">kontrolovaný návrat</text>
</svg>