<svg xmlns="http://www.w3.org/2000/svg" viewBox="0 0 300 220" fill="none" aria-hidden="true">
<rect width="300" height="220" fill="#edf0f8"/>
<rect x="0" y="176" width="300" height="44" fill="#e8943a" opacity="0.08"/>
<line x1="0" y1="176" x2="300" y2="176" stroke="#e8943a" stroke-width="1.5" opacity="0.3"/>
<line x1="158" y1="52" x2="150" y2="80" stroke="#1c2240" stroke-width="11" stroke-linecap="round" stroke-linejoin="round"/><line x1="150" y1="80" x2="148" y2="108" stroke="#1c2240" stroke-width="9" stroke-linecap="round" stroke-linejoin="round"/><line x1="158" y1="102" x2="154" y2="140" stroke="#1c2240" stroke-width="14" stroke-linecap="round" stroke-linejoin="round"/><line x1="154" y1="140" x2="154" y2="170" stroke="#1c2240" stroke-width="11" stroke-linecap="round" stroke-linejoin="round"/><line x1="151" y1="171" x2="168" y2="171" stroke="#1c2240" stroke-width="8" stroke-linecap="round" stroke-linejoin="round"/><line x1="158" y1="52" x2="158" y2="102" stroke="#1c2240" stroke-width="18" stroke-linecap="round" stroke-linejoin="round"/><line x1="158" y1="102" x2="180" y2="142" stroke="#1c2240" stroke-width="16" stroke-linecap="round" stroke-linejoin="round"/><line x1="180" y1="142" x2="186" y2="170" stroke="#1c2240" stroke-width="13" stroke-linecap="round" stroke-linejoin="round"/><line x1="183" y1="171" x2="200" y2="171" stroke="#1c2240" stroke-width="9" stroke-linecap="round" stroke-linejoin="round"/><line x1="158" y1="52" x2="168" y2="82" stroke="#1c2240" stroke-width="13" stroke-linecap="round" stroke-linejoin="round"/><line x1="168" y1="82" x2="170" y2="110" stroke="#1c2240" stroke-width="11" stroke-linecap="round" stroke-linejoin="round"/><path d="M144 18 C138 4 130 12 134 28 C138 26 143 22 144 18Z" fill="#1c2240"/><circle cx="158" cy="22" r="13" fill="#1c2240"/>
<text x="150" y="196" text-anchor="middle" fill="#e8943a" font-family="'Segoe UI',system-ui,sans-serif" font-size="13" font-weight="700" letter-spacing="0.1em">PRŮBĚH</text>
<text x="150" y="211" text-anchor="middle" fill="#8090b0" font-family="'Segoe UI',system-ui,sans-serif" font-size="8.5" font-weight="400">boky nahoru · tělo rovné</text>
</svg>