<svg xmlns="http://www.w3.org/2000/svg" viewBox="0 0 300 220" fill="none" aria-hidden="true">
<rect width="300" height="220" fill="#edf0f8"/>
<rect x="0" y="176" width="300" height="44" fill="#e8943a" opacity="0.08"/>
<line x1="0" y1="176" x2="300" y2="176" stroke="#e8943a" stroke-width="1.5" opacity="0.3"/>
<line x1="162" y1="52" x2="150" y2="78" stroke="#1c2240" stroke-width="11" stroke-linecap="round" stroke-linejoin="round"/><line x1="150" y1="78" x2="148" y2="106" stroke="#1c2240" stroke-width="9" stroke-linecap="round" stroke-linejoin="round"/><line x1="162" y1="102" x2="157" y2="138" stroke="#1c2240" stroke-width="14" stroke-linecap="round" stroke-linejoin="round"/><line x1="157" y1="138" x2="156" y2="170" stroke="#1c2240" stroke-width="11" stroke-linecap="round" stroke-linejoin="round"/><line x1="153" y1="171" x2="170" y2="171" stroke="#1c2240" stroke-width="8" stroke-linecap="round" stroke-linejoin="round"/><line x1="162" y1="52" x2="162" y2="102" stroke="#1c2240" stroke-width="18" stroke-linecap="round" stroke-linejoin="round"/><line x1="162" y1="102" x2="167" y2="140" stroke="#1c2240" stroke-width="16" stroke-linecap="round" stroke-linejoin="round"/><line x1="167" y1="140" x2="168" y2="170" stroke="#1c2240" stroke-width="13" stroke-linecap="round" stroke-linejoin="round"/><line x1="165" y1="171" x2="182" y2="171" stroke="#1c2240" stroke-width="9" stroke-linecap="round" stroke-linejoin="round"/><line x1="162" y1="52" x2="176" y2="80" stroke="#1c2240" stroke-width="13" stroke-linecap="round" stroke-linejoin="round"/><line x1="176" y1="80" x2="178" y2="108" stroke="#1c2240" stroke-width="11" stroke-linecap="round" stroke-linejoin="round"/><path d="M148 18 C142 4 134 12 138 28 C142 26 147 22 148 18Z" fill="#1c2240"/><circle cx="162" cy="22" r="13" fill="#1c2240"/>
<text x="150" y="196" text-anchor="middle" fill="#e8943a" font-family="'Segoe UI',system-ui,sans-serif" font-size="13" font-weight="700" letter-spacing="0.1em">ZÁVĚR</text>
<text x="150" y="211" text-anchor="middle" fill="#8090b0" font-family="'Segoe UI',system-ui,sans-serif" font-size="8.5" font-weight="400">kontrolovaný návrat</text>
</svg>