<svg xmlns="http://www.w3.org/2000/svg" viewBox="0 0 300 220" fill="none" aria-hidden="true">
<rect width="300" height="220" fill="#edf0f8"/>
<rect x="0" y="176" width="300" height="44" fill="#c5e86d" opacity="0.08"/>
<line x1="0" y1="176" x2="300" y2="176" stroke="#c5e86d" stroke-width="1.5" opacity="0.3"/>
<line x1="200" y1="86" x2="200" y2="108" stroke="#1c2240" stroke-width="11" stroke-linecap="round" stroke-linejoin="round"/><line x1="200" y1="108" x2="200" y2="128" stroke="#1c2240" stroke-width="9" stroke-linecap="round" stroke-linejoin="round"/><line x1="120" y1="82" x2="158" y2="58" stroke="#1c2240" stroke-width="14" stroke-linecap="round" stroke-linejoin="round"/><line x1="158" y1="58" x2="186" y2="42" stroke="#1c2240" stroke-width="11" stroke-linecap="round" stroke-linejoin="round"/><line x1="200" y1="86" x2="120" y2="82" stroke="#1c2240" stroke-width="18" stroke-linecap="round" stroke-linejoin="round"/><line x1="120" y1="82" x2="82" y2="96" stroke="#1c2240" stroke-width="16" stroke-linecap="round" stroke-linejoin="round"/><line x1="200" y1="86" x2="174" y2="60" stroke="#1c2240" stroke-width="13" stroke-linecap="round" stroke-linejoin="round"/><line x1="174" y1="60" x2="154" y2="46" stroke="#1c2240" stroke-width="11" stroke-linecap="round" stroke-linejoin="round"/><path d="M238 68 C244 54 252 62 248 78 C244 76 239 72 238 68Z" fill="#1c2240"/><circle cx="224" cy="72" r="13" fill="#1c2240"/>
<text x="150" y="196" text-anchor="middle" fill="#c5e86d" font-family="'Segoe UI',system-ui,sans-serif" font-size="13" font-weight="700" letter-spacing="0.1em">PRŮBĚH</text>
<text x="150" y="211" text-anchor="middle" fill="#8090b0" font-family="'Segoe UI',system-ui,sans-serif" font-size="8.5" font-weight="400">zpevni střed · pomalu</text>
</svg>