<svg xmlns="http://www.w3.org/2000/svg" viewBox="0 0 300 212" fill="none" aria-hidden="true">
<rect width="300" height="212" fill="#0d1019"/>
<rect x="4" y="4" width="292" height="204" rx="14" fill="#131826" stroke="#283249" stroke-width="1"/>
<line x1="200" y1="86" x2="200" y2="108" stroke="#c5e86d" stroke-width="11" stroke-linecap="round" stroke-linejoin="round"/><line x1="200" y1="108" x2="200" y2="128" stroke="#c5e86d" stroke-width="9" stroke-linecap="round" stroke-linejoin="round"/><line x1="120" y1="82" x2="158" y2="58" stroke="#c5e86d" stroke-width="14" stroke-linecap="round" stroke-linejoin="round"/><line x1="158" y1="58" x2="186" y2="42" stroke="#c5e86d" stroke-width="11" stroke-linecap="round" stroke-linejoin="round"/><line x1="200" y1="86" x2="120" y2="82" stroke="#c5e86d" stroke-width="18" stroke-linecap="round" stroke-linejoin="round"/><line x1="120" y1="82" x2="82" y2="96" stroke="#c5e86d" stroke-width="16" stroke-linecap="round" stroke-linejoin="round"/><line x1="200" y1="86" x2="174" y2="60" stroke="#c5e86d" stroke-width="13" stroke-linecap="round" stroke-linejoin="round"/><line x1="174" y1="60" x2="154" y2="46" stroke="#c5e86d" stroke-width="11" stroke-linecap="round" stroke-linejoin="round"/><path d="M238 68 C244 54 252 62 248 78 C244 76 239 72 238 68Z" fill="#c5e86d"/><circle cx="224" cy="72" r="13" fill="#c5e86d"/>
<text x="150" y="190" text-anchor="middle" fill="#d8e4f8" font-family="'Segoe UI',system-ui,sans-serif" font-size="13.5" font-weight="700" letter-spacing="0.09em">PRŮBĚH</text>
<text x="150" y="207" text-anchor="middle" fill="#5e7299" font-family="'Segoe UI',system-ui,sans-serif" font-size="9" font-weight="400">zpevni střed · pomalu</text>
</svg>