<svg xmlns="http://www.w3.org/2000/svg" viewBox="0 0 300 212" fill="none" aria-hidden="true">
<defs>
  <filter id="sfGlow" x="-40%" y="-40%" width="180%" height="180%">
    <feGaussianBlur stdDeviation="0.45" result="b"/>
    <feMerge>
      <feMergeNode in="b"/>
      <feMergeNode in="SourceGraphic"/>
    </feMerge>
  </filter>
</defs>
<rect width="300" height="212" fill="#0a0c10"/>
<rect x="5" y="5" width="290" height="202" rx="16" ry="16" fill="#131822" stroke="#3a4558" stroke-width="1.2"/>
<g transform="translate(50,12)">
<line x1="8" y1="108" x2="192" y2="108" stroke="#4a5f82" stroke-width="1" opacity="0.4"/>
<g filter="url(#sfGlow)"><circle cx="82" cy="24" r="7.5" stroke="#5b9fd4" stroke-width="1.85" fill="none" opacity="0.98"/><path d="M82 31.5 L84 36 L88 54" stroke="#5b9fd4" stroke-width="2.15" stroke-linecap="round" stroke-linejoin="round"/><path d="M88 54 L92 72 L98 108" stroke="#5b9fd4" stroke-width="2.15" stroke-linecap="round" stroke-linejoin="round"/><path d="M88 54 L82 76 L76 108" stroke="#5b9fd4" stroke-width="2.15" stroke-linecap="round" stroke-linejoin="round"/><path d="M84 36 L74 44" stroke="#5b9fd4" stroke-width="2.15" stroke-linecap="round" stroke-linejoin="round"/><path d="M84 36 L92 42" stroke="#5b9fd4" stroke-width="2.15" stroke-linecap="round" stroke-linejoin="round"/><circle cx="84" cy="36" r="2.5" fill="#5b9fd4"/><circle cx="88" cy="54" r="2.5" fill="#5b9fd4"/><circle cx="92" cy="72" r="2.5" fill="#5b9fd4"/><circle cx="98" cy="108" r="2.5" fill="#5b9fd4"/><circle cx="82" cy="76" r="2.5" fill="#5b9fd4"/><circle cx="76" cy="108" r="2.5" fill="#5b9fd4"/><circle cx="74" cy="44" r="2.5" fill="#5b9fd4"/><circle cx="92" cy="42" r="2.5" fill="#5b9fd4"/></g>
</g>


<text x="150" y="184" text-anchor="middle" fill="#eef2f9" font-family="Segoe UI,system-ui,sans-serif" font-size="13.5" font-weight="700" letter-spacing="0.14em">VÝCHOZÍ</text>

</svg>