<svg xmlns="http://www.w3.org/2000/svg" viewBox="0 0 300 212" fill="none" aria-hidden="true">
<rect width="300" height="212" fill="#0d1019"/>
<rect x="4" y="4" width="292" height="204" rx="14" fill="#131826" stroke="#283249" stroke-width="1"/>
<line x1="148" y1="52" x2="142" y2="80" stroke="#5b9fd4" stroke-width="11" stroke-linecap="round" stroke-linejoin="round"/><line x1="142" y1="80" x2="140" y2="108" stroke="#5b9fd4" stroke-width="9" stroke-linecap="round" stroke-linejoin="round"/><line x1="148" y1="102" x2="94" y2="102" stroke="#5b9fd4" stroke-width="14" stroke-linecap="round" stroke-linejoin="round"/><line x1="94" y1="102" x2="94" y2="172" stroke="#5b9fd4" stroke-width="11" stroke-linecap="round" stroke-linejoin="round"/><line x1="91" y1="173" x2="108" y2="173" stroke="#5b9fd4" stroke-width="8" stroke-linecap="round" stroke-linejoin="round"/><line x1="148" y1="52" x2="148" y2="102" stroke="#5b9fd4" stroke-width="18" stroke-linecap="round" stroke-linejoin="round"/><line x1="148" y1="102" x2="202" y2="102" stroke="#5b9fd4" stroke-width="16" stroke-linecap="round" stroke-linejoin="round"/><line x1="202" y1="102" x2="202" y2="172" stroke="#5b9fd4" stroke-width="13" stroke-linecap="round" stroke-linejoin="round"/><line x1="199" y1="173" x2="216" y2="173" stroke="#5b9fd4" stroke-width="9" stroke-linecap="round" stroke-linejoin="round"/><line x1="148" y1="52" x2="154" y2="80" stroke="#5b9fd4" stroke-width="13" stroke-linecap="round" stroke-linejoin="round"/><line x1="154" y1="80" x2="156" y2="108" stroke="#5b9fd4" stroke-width="11" stroke-linecap="round" stroke-linejoin="round"/><path d="M134 18 C128 4 120 12 124 28 C128 26 133 22 134 18Z" fill="#5b9fd4"/><circle cx="148" cy="22" r="13" fill="#5b9fd4"/>
<text x="150" y="190" text-anchor="middle" fill="#d8e4f8" font-family="'Segoe UI',system-ui,sans-serif" font-size="13.5" font-weight="700" letter-spacing="0.09em">ZÁVĚR</text>
<text x="150" y="207" text-anchor="middle" fill="#5e7299" font-family="'Segoe UI',system-ui,sans-serif" font-size="9" font-weight="400">kontrolovaný návrat</text>
</svg>