<svg xmlns="http://www.w3.org/2000/svg" viewBox="0 0 300 220" fill="none" aria-hidden="true">
<rect width="300" height="220" fill="#edf0f8"/>
<rect x="0" y="176" width="300" height="44" fill="#e8943a" opacity="0.08"/>
<line x1="0" y1="176" x2="300" y2="176" stroke="#e8943a" stroke-width="1.5" opacity="0.3"/>
<line x1="60" y1="96" x2="64" y2="88" stroke="#1c2240" stroke-width="11" stroke-linecap="round" stroke-linejoin="round"/><line x1="64" y1="88" x2="86" y2="82" stroke="#1c2240" stroke-width="9" stroke-linecap="round" stroke-linejoin="round"/><line x1="124" y1="52" x2="136" y2="30" stroke="#1c2240" stroke-width="14" stroke-linecap="round" stroke-linejoin="round"/><line x1="136" y1="30" x2="158" y2="16" stroke="#1c2240" stroke-width="11" stroke-linecap="round" stroke-linejoin="round"/><line x1="60" y1="96" x2="124" y2="52" stroke="#1c2240" stroke-width="18" stroke-linecap="round" stroke-linejoin="round"/><line x1="124" y1="52" x2="160" y2="88" stroke="#1c2240" stroke-width="16" stroke-linecap="round" stroke-linejoin="round"/><line x1="160" y1="88" x2="188" y2="94" stroke="#1c2240" stroke-width="13" stroke-linecap="round" stroke-linejoin="round"/><line x1="60" y1="96" x2="62" y2="84" stroke="#1c2240" stroke-width="13" stroke-linecap="round" stroke-linejoin="round"/><line x1="62" y1="84" x2="84" y2="78" stroke="#1c2240" stroke-width="11" stroke-linecap="round" stroke-linejoin="round"/><path d="M20 86 C14 72 6 80 10 96 C14 94 19 90 20 86Z" fill="#1c2240"/><circle cx="34" cy="90" r="13" fill="#1c2240"/>
<text x="150" y="196" text-anchor="middle" fill="#e8943a" font-family="'Segoe UI',system-ui,sans-serif" font-size="13" font-weight="700" letter-spacing="0.1em">PRŮBĚH</text>
<text x="150" y="211" text-anchor="middle" fill="#8090b0" font-family="'Segoe UI',system-ui,sans-serif" font-size="8.5" font-weight="400">stlač hýždě · pauza nahoře</text>
</svg>