<svg xmlns="http://www.w3.org/2000/svg" viewBox="0 0 300 220" fill="none" aria-hidden="true">
<rect width="300" height="220" fill="#edf0f8"/>
<rect x="0" y="176" width="300" height="44" fill="#e8943a" opacity="0.08"/>
<line x1="0" y1="176" x2="300" y2="176" stroke="#e8943a" stroke-width="1.5" opacity="0.3"/>
<line x1="58" y1="90" x2="60" y2="80" stroke="#1c2240" stroke-width="11" stroke-linecap="round" stroke-linejoin="round"/><line x1="60" y1="80" x2="82" y2="74" stroke="#1c2240" stroke-width="9" stroke-linecap="round" stroke-linejoin="round"/><line x1="128" y1="86" x2="162" y2="96" stroke="#1c2240" stroke-width="14" stroke-linecap="round" stroke-linejoin="round"/><line x1="162" y1="96" x2="190" y2="96" stroke="#1c2240" stroke-width="11" stroke-linecap="round" stroke-linejoin="round"/><line x1="58" y1="90" x2="128" y2="86" stroke="#1c2240" stroke-width="18" stroke-linecap="round" stroke-linejoin="round"/><line x1="128" y1="86" x2="164" y2="92" stroke="#1c2240" stroke-width="16" stroke-linecap="round" stroke-linejoin="round"/><line x1="164" y1="92" x2="192" y2="92" stroke="#1c2240" stroke-width="13" stroke-linecap="round" stroke-linejoin="round"/><line x1="58" y1="90" x2="58" y2="76" stroke="#1c2240" stroke-width="13" stroke-linecap="round" stroke-linejoin="round"/><line x1="58" y1="76" x2="80" y2="70" stroke="#1c2240" stroke-width="11" stroke-linecap="round" stroke-linejoin="round"/><path d="M20 82 C14 68 6 76 10 92 C14 90 19 86 20 82Z" fill="#1c2240"/><circle cx="34" cy="86" r="13" fill="#1c2240"/>
<text x="150" y="196" text-anchor="middle" fill="#e8943a" font-family="'Segoe UI',system-ui,sans-serif" font-size="13" font-weight="700" letter-spacing="0.1em">VÝCHOZÍ</text>
<text x="150" y="211" text-anchor="middle" fill="#8090b0" font-family="'Segoe UI',system-ui,sans-serif" font-size="8.5" font-weight="400">výchozí poloha</text>
</svg>