<svg xmlns="http://www.w3.org/2000/svg" viewBox="0 0 300 212" fill="none" aria-hidden="true">
<rect width="300" height="212" fill="#0d1019"/>
<rect x="4" y="4" width="292" height="204" rx="14" fill="#131826" stroke="#283249" stroke-width="1"/>
<line x1="222" y1="64" x2="224" y2="94" stroke="#ff5c5c" stroke-width="11" stroke-linecap="round" stroke-linejoin="round"/><line x1="224" y1="94" x2="222" y2="112" stroke="#ff5c5c" stroke-width="9" stroke-linecap="round" stroke-linejoin="round"/><line x1="150" y1="80" x2="112" y2="98" stroke="#ff5c5c" stroke-width="14" stroke-linecap="round" stroke-linejoin="round"/><line x1="112" y1="98" x2="74" y2="110" stroke="#ff5c5c" stroke-width="11" stroke-linecap="round" stroke-linejoin="round"/><line x1="222" y1="64" x2="150" y2="80" stroke="#ff5c5c" stroke-width="18" stroke-linecap="round" stroke-linejoin="round"/><line x1="150" y1="80" x2="116" y2="94" stroke="#ff5c5c" stroke-width="16" stroke-linecap="round" stroke-linejoin="round"/><line x1="116" y1="94" x2="78" y2="106" stroke="#ff5c5c" stroke-width="13" stroke-linecap="round" stroke-linejoin="round"/><line x1="222" y1="64" x2="222" y2="90" stroke="#ff5c5c" stroke-width="13" stroke-linecap="round" stroke-linejoin="round"/><line x1="222" y1="90" x2="220" y2="108" stroke="#ff5c5c" stroke-width="11" stroke-linecap="round" stroke-linejoin="round"/><path d="M258 46 C264 32 272 40 268 56 C264 54 259 50 258 46Z" fill="#ff5c5c"/><circle cx="244" cy="50" r="13" fill="#ff5c5c"/>
<text x="150" y="190" text-anchor="middle" fill="#d8e4f8" font-family="'Segoe UI',system-ui,sans-serif" font-size="13.5" font-weight="700" letter-spacing="0.09em">VÝCHOZÍ</text>
<text x="150" y="207" text-anchor="middle" fill="#5e7299" font-family="'Segoe UI',system-ui,sans-serif" font-size="9" font-weight="400">výchozí poloha</text>
</svg>