<svg xmlns="http://www.w3.org/2000/svg" viewBox="0 0 300 212" fill="none" aria-hidden="true">
<rect width="300" height="212" fill="#0d1019"/>
<rect x="4" y="4" width="292" height="204" rx="14" fill="#131826" stroke="#283249" stroke-width="1"/>
<line x1="60" y1="96" x2="64" y2="88" stroke="#ff5c5c" stroke-width="11" stroke-linecap="round" stroke-linejoin="round"/><line x1="64" y1="88" x2="86" y2="82" stroke="#ff5c5c" stroke-width="9" stroke-linecap="round" stroke-linejoin="round"/><line x1="126" y1="52" x2="160" y2="92" stroke="#ff5c5c" stroke-width="14" stroke-linecap="round" stroke-linejoin="round"/><line x1="160" y1="92" x2="188" y2="98" stroke="#ff5c5c" stroke-width="11" stroke-linecap="round" stroke-linejoin="round"/><line x1="60" y1="96" x2="126" y2="52" stroke="#ff5c5c" stroke-width="18" stroke-linecap="round" stroke-linejoin="round"/><line x1="126" y1="52" x2="162" y2="88" stroke="#ff5c5c" stroke-width="16" stroke-linecap="round" stroke-linejoin="round"/><line x1="162" y1="88" x2="190" y2="94" stroke="#ff5c5c" stroke-width="13" stroke-linecap="round" stroke-linejoin="round"/><line x1="60" y1="96" x2="62" y2="84" stroke="#ff5c5c" stroke-width="13" stroke-linecap="round" stroke-linejoin="round"/><line x1="62" y1="84" x2="84" y2="78" stroke="#ff5c5c" stroke-width="11" stroke-linecap="round" stroke-linejoin="round"/><path d="M20 86 C14 72 6 80 10 96 C14 94 19 90 20 86Z" fill="#ff5c5c"/><circle cx="34" cy="90" r="13" fill="#ff5c5c"/>
<text x="150" y="190" text-anchor="middle" fill="#d8e4f8" font-family="'Segoe UI',system-ui,sans-serif" font-size="13.5" font-weight="700" letter-spacing="0.09em">PRŮBĚH</text>
<text x="150" y="207" text-anchor="middle" fill="#5e7299" font-family="'Segoe UI',system-ui,sans-serif" font-size="9" font-weight="400">stlač hýždě · pauza nahoře</text>
</svg>