<svg xmlns="http://www.w3.org/2000/svg" viewBox="0 0 300 212" fill="none" aria-hidden="true">
<rect width="300" height="212" fill="#0d1019"/>
<rect x="4" y="4" width="292" height="204" rx="14" fill="#131826" stroke="#283249" stroke-width="1"/>
<line x1="152" y1="54" x2="160" y2="80" stroke="#c5e86d" stroke-width="11" stroke-linecap="round" stroke-linejoin="round"/><line x1="160" y1="80" x2="164" y2="108" stroke="#c5e86d" stroke-width="9" stroke-linecap="round" stroke-linejoin="round"/><line x1="156" y1="102" x2="198" y2="148" stroke="#c5e86d" stroke-width="14" stroke-linecap="round" stroke-linejoin="round"/><line x1="198" y1="148" x2="212" y2="172" stroke="#c5e86d" stroke-width="11" stroke-linecap="round" stroke-linejoin="round"/><line x1="209" y1="173" x2="226" y2="173" stroke="#c5e86d" stroke-width="8" stroke-linecap="round" stroke-linejoin="round"/><line x1="152" y1="54" x2="156" y2="102" stroke="#c5e86d" stroke-width="18" stroke-linecap="round" stroke-linejoin="round"/><line x1="156" y1="102" x2="134" y2="128" stroke="#c5e86d" stroke-width="16" stroke-linecap="round" stroke-linejoin="round"/><line x1="134" y1="128" x2="148" y2="172" stroke="#c5e86d" stroke-width="13" stroke-linecap="round" stroke-linejoin="round"/><line x1="145" y1="173" x2="162" y2="173" stroke="#c5e86d" stroke-width="9" stroke-linecap="round" stroke-linejoin="round"/><line x1="152" y1="54" x2="140" y2="82" stroke="#c5e86d" stroke-width="13" stroke-linecap="round" stroke-linejoin="round"/><line x1="140" y1="82" x2="136" y2="110" stroke="#c5e86d" stroke-width="11" stroke-linecap="round" stroke-linejoin="round"/><path d="M136 20 C130 6 122 14 126 30 C130 28 135 24 136 20Z" fill="#c5e86d"/><circle cx="150" cy="24" r="13" fill="#c5e86d"/>
<text x="150" y="190" text-anchor="middle" fill="#d8e4f8" font-family="'Segoe UI',system-ui,sans-serif" font-size="13.5" font-weight="700" letter-spacing="0.09em">PRŮBĚH</text>
<text x="150" y="207" text-anchor="middle" fill="#5e7299" font-family="'Segoe UI',system-ui,sans-serif" font-size="9" font-weight="400">přední koleno nad kotníkem</text>
</svg>