<svg xmlns="http://www.w3.org/2000/svg" viewBox="0 0 300 212" fill="none" aria-hidden="true">
<defs>
  <filter id="sfGlow" x="-40%" y="-40%" width="180%" height="180%">
    <feGaussianBlur stdDeviation="0.45" result="b"/>
    <feMerge>
      <feMergeNode in="b"/>
      <feMergeNode in="SourceGraphic"/>
    </feMerge>
  </filter>
</defs>
<rect width="300" height="212" fill="#0a0c10"/>
<rect x="5" y="5" width="290" height="202" rx="16" ry="16" fill="#131822" stroke="#3a4558" stroke-width="1.2"/>
<g transform="translate(50,12)">
<line x1="8" y1="108" x2="192" y2="108" stroke="#4a5f82" stroke-width="1" opacity="0.4"/>
<g filter="url(#sfGlow)"><line x1="58" y1="62" x2="98" y2="64" stroke="#c5e86d" stroke-width="12" stroke-linecap="round" opacity="0.14"/><line x1="98" y1="64" x2="132" y2="68" stroke="#c5e86d" stroke-width="10" stroke-linecap="round" opacity="0.12"/><circle cx="40" cy="34" r="7" stroke="#c5e86d" stroke-width="1.85" fill="none" opacity="0.98"/><path d="M40 41 L58 62 L98 64 L132 68 L168 108" stroke="#c5e86d" stroke-width="2.2" stroke-linecap="round" stroke-linejoin="round"/><path d="M58 62 L50 88 L44 108" stroke="#c5e86d" stroke-width="2.2" stroke-linecap="round" stroke-linejoin="round"/><path d="M58 62 L56 90 L58 108" stroke="#c5e86d" stroke-width="2.2" stroke-linecap="round" stroke-linejoin="round"/><circle cx="58" cy="62" r="2.5" fill="#c5e86d"/><circle cx="98" cy="64" r="2.5" fill="#c5e86d"/><circle cx="132" cy="68" r="2.5" fill="#c5e86d"/><circle cx="168" cy="108" r="2.5" fill="#c5e86d"/><circle cx="50" cy="88" r="2.5" fill="#c5e86d"/><circle cx="56" cy="90" r="2.5" fill="#c5e86d"/><circle cx="44" cy="108" r="2.5" fill="#c5e86d"/><circle cx="58" cy="108" r="2.5" fill="#c5e86d"/></g>
</g>


<text x="150" y="184" text-anchor="middle" fill="#eef2f9" font-family="Segoe UI,system-ui,sans-serif" font-size="13.5" font-weight="700" letter-spacing="0.14em">VÝCHOZÍ</text>

</svg>