<svg xmlns="http://www.w3.org/2000/svg" viewBox="0 0 300 212" fill="none" aria-hidden="true">
<defs>
  <filter id="sfGlow" x="-40%" y="-40%" width="180%" height="180%">
    <feGaussianBlur stdDeviation="0.45" result="b"/>
    <feMerge>
      <feMergeNode in="b"/>
      <feMergeNode in="SourceGraphic"/>
    </feMerge>
  </filter>
</defs>
<rect width="300" height="212" fill="#0a0c10"/>
<rect x="5" y="5" width="290" height="202" rx="16" ry="16" fill="#131822" stroke="#3a4558" stroke-width="1.2"/>
<g transform="translate(50,12)">
<line x1="8" y1="108" x2="192" y2="108" stroke="#4a5f82" stroke-width="1" opacity="0.4"/>
<g filter="url(#sfGlow)"><line x1="86" y1="56" x2="118" y2="78" stroke="#e8943a" stroke-width="9" stroke-linecap="round" opacity="0.12"/><line x1="86" y1="56" x2="72" y2="88" stroke="#e8943a" stroke-width="8" stroke-linecap="round" opacity="0.1"/><circle cx="102" cy="26" r="7.5" stroke="#e8943a" stroke-width="1.85" fill="none" opacity="0.98"/><path d="M102 33.5 L98 38 L86 56" stroke="#e8943a" stroke-width="2.15" stroke-linecap="round" stroke-linejoin="round"/><path d="M86 56 L118 78 L128 108" stroke="#e8943a" stroke-width="2.15" stroke-linecap="round" stroke-linejoin="round"/><path d="M86 56 L72 88 L56 108" stroke="#e8943a" stroke-width="2.15" stroke-linecap="round" stroke-linejoin="round"/><path d="M98 38 L86 46" stroke="#e8943a" stroke-width="2.15" stroke-linecap="round" stroke-linejoin="round"/><path d="M98 38 L104 44" stroke="#e8943a" stroke-width="2.15" stroke-linecap="round" stroke-linejoin="round"/><circle cx="98" cy="38" r="2.5" fill="#e8943a"/><circle cx="86" cy="56" r="2.5" fill="#e8943a"/><circle cx="118" cy="78" r="2.5" fill="#e8943a"/><circle cx="128" cy="108" r="2.5" fill="#e8943a"/><circle cx="72" cy="88" r="2.5" fill="#e8943a"/><circle cx="56" cy="108" r="2.5" fill="#e8943a"/><circle cx="86" cy="46" r="2.5" fill="#e8943a"/><circle cx="104" cy="44" r="2.5" fill="#e8943a"/></g>
</g>
<g transform="translate(18,58)" stroke="#e8edf7" stroke-width="2.2" stroke-linecap="round" stroke-linejoin="round" fill="none" opacity="0.92">
<path d="M0 0 L0 22 M-6 14 L0 22 L6 14"/></g><g transform="translate(14,36)" stroke="#e8943a" fill="none" stroke-width="1.35" opacity="0.9">
<path d="M4 2 C0 -2 -4 2 -2 6"/><path d="M10 2 C14 -2 18 2 16 6"/></g><text x="18" y="32" fill="#9aa8c4" font-family="Segoe UI,system-ui,sans-serif" font-size="8.5">nádech</text>

<text x="150" y="184" text-anchor="middle" fill="#eef2f9" font-family="Segoe UI,system-ui,sans-serif" font-size="13.5" font-weight="700" letter-spacing="0.14em">PRŮBĚH</text>
<text x="150" y="202" text-anchor="middle" fill="#8b9ab8" font-family="Segoe UI,system-ui,sans-serif" font-size="9.5">Klidné tempo</text>
</svg>