<svg xmlns="http://www.w3.org/2000/svg" viewBox="0 0 300 212" fill="none" aria-hidden="true">
<rect width="300" height="212" fill="#0d1019"/>
<rect x="4" y="4" width="292" height="204" rx="14" fill="#131826" stroke="#283249" stroke-width="1"/>
<line x1="144" y1="82" x2="144" y2="100" stroke="#5b9fd4" stroke-width="11" stroke-linecap="round" stroke-linejoin="round"/><line x1="144" y1="100" x2="142" y2="122" stroke="#5b9fd4" stroke-width="9" stroke-linecap="round" stroke-linejoin="round"/><line x1="148" y1="118" x2="120" y2="122" stroke="#5b9fd4" stroke-width="14" stroke-linecap="round" stroke-linejoin="round"/><line x1="120" y1="122" x2="88" y2="126" stroke="#5b9fd4" stroke-width="11" stroke-linecap="round" stroke-linejoin="round"/><line x1="144" y1="82" x2="148" y2="118" stroke="#5b9fd4" stroke-width="18" stroke-linecap="round" stroke-linejoin="round"/><line x1="148" y1="118" x2="204" y2="128" stroke="#5b9fd4" stroke-width="16" stroke-linecap="round" stroke-linejoin="round"/><line x1="204" y1="128" x2="174" y2="138" stroke="#5b9fd4" stroke-width="13" stroke-linecap="round" stroke-linejoin="round"/><line x1="144" y1="82" x2="152" y2="100" stroke="#5b9fd4" stroke-width="13" stroke-linecap="round" stroke-linejoin="round"/><line x1="152" y1="100" x2="154" y2="122" stroke="#5b9fd4" stroke-width="11" stroke-linecap="round" stroke-linejoin="round"/><path d="M134 46 C128 32 120 40 124 56 C128 54 133 50 134 46Z" fill="#5b9fd4"/><circle cx="148" cy="50" r="13" fill="#5b9fd4"/>
<text x="150" y="190" text-anchor="middle" fill="#d8e4f8" font-family="'Segoe UI',system-ui,sans-serif" font-size="13.5" font-weight="700" letter-spacing="0.09em">ZÁVĚR</text>
<text x="150" y="207" text-anchor="middle" fill="#5e7299" font-family="'Segoe UI',system-ui,sans-serif" font-size="9" font-weight="400">kontrolovaný návrat</text>
</svg>