<svg xmlns="http://www.w3.org/2000/svg" viewBox="0 0 300 220" fill="none" aria-hidden="true">
<rect width="300" height="220" fill="#edf0f8"/>
<rect x="0" y="176" width="300" height="44" fill="#5b9fd4" opacity="0.08"/>
<line x1="0" y1="176" x2="300" y2="176" stroke="#5b9fd4" stroke-width="1.5" opacity="0.3"/>
<line x1="208" y1="86" x2="232" y2="76" stroke="#1c2240" stroke-width="11" stroke-linecap="round" stroke-linejoin="round"/><line x1="232" y1="76" x2="252" y2="66" stroke="#1c2240" stroke-width="9" stroke-linecap="round" stroke-linejoin="round"/><line x1="130" y1="84" x2="88" y2="94" stroke="#1c2240" stroke-width="14" stroke-linecap="round" stroke-linejoin="round"/><line x1="88" y1="94" x2="52" y2="100" stroke="#1c2240" stroke-width="11" stroke-linecap="round" stroke-linejoin="round"/><line x1="208" y1="86" x2="130" y2="84" stroke="#1c2240" stroke-width="18" stroke-linecap="round" stroke-linejoin="round"/><line x1="130" y1="84" x2="90" y2="90" stroke="#1c2240" stroke-width="16" stroke-linecap="round" stroke-linejoin="round"/><line x1="90" y1="90" x2="54" y2="96" stroke="#1c2240" stroke-width="13" stroke-linecap="round" stroke-linejoin="round"/><line x1="208" y1="86" x2="230" y2="72" stroke="#1c2240" stroke-width="13" stroke-linecap="round" stroke-linejoin="round"/><line x1="230" y1="72" x2="250" y2="62" stroke="#1c2240" stroke-width="11" stroke-linecap="round" stroke-linejoin="round"/><path d="M246 76 C252 62 260 70 256 86 C252 84 247 80 246 76Z" fill="#1c2240"/><circle cx="232" cy="80" r="13" fill="#1c2240"/>
<text x="150" y="196" text-anchor="middle" fill="#5b9fd4" font-family="'Segoe UI',system-ui,sans-serif" font-size="13" font-weight="700" letter-spacing="0.1em">ZÁVĚR</text>
<text x="150" y="211" text-anchor="middle" fill="#8090b0" font-family="'Segoe UI',system-ui,sans-serif" font-size="8.5" font-weight="400">kontrolovaný návrat</text>
</svg>