<svg xmlns="http://www.w3.org/2000/svg" viewBox="0 0 200 120" fill="none" aria-hidden="true">
<defs>
  <filter id="sfGlow" x="-35%" y="-35%" width="170%" height="170%">
    <feGaussianBlur stdDeviation="0.5" result="b"/>
    <feMerge>
      <feMergeNode in="b"/>
      <feMergeNode in="SourceGraphic"/>
    </feMerge>
  </filter>
</defs>
<rect width="200" height="120" fill="#141414"/>
<line x1="8" y1="108" x2="192" y2="108" stroke="#4a5570" stroke-width="1.2" opacity="0.45"/>
<g filter="url(#sfGlow)"><circle cx="88" cy="24" r="7.5" stroke="#ff5c5c" stroke-width="1.85" fill="none" opacity="0.98"/><path d="M88 31.5 L86 36 L88 54" stroke="#ff5c5c" stroke-width="2.15" stroke-linecap="round" stroke-linejoin="round"/><path d="M88 54 L94 74 L100 108" stroke="#ff5c5c" stroke-width="2.15" stroke-linecap="round" stroke-linejoin="round"/><path d="M88 54 L80 78 L74 108" stroke="#ff5c5c" stroke-width="2.15" stroke-linecap="round" stroke-linejoin="round"/><path d="M86 36 L76 44" stroke="#ff5c5c" stroke-width="2.15" stroke-linecap="round" stroke-linejoin="round"/><path d="M86 36 L94 42" stroke="#ff5c5c" stroke-width="2.15" stroke-linecap="round" stroke-linejoin="round"/><circle cx="86" cy="36" r="2.5" fill="#ff5c5c"/><circle cx="88" cy="54" r="2.5" fill="#ff5c5c"/><circle cx="94" cy="74" r="2.5" fill="#ff5c5c"/><circle cx="100" cy="108" r="2.5" fill="#ff5c5c"/><circle cx="80" cy="78" r="2.5" fill="#ff5c5c"/><circle cx="74" cy="108" r="2.5" fill="#ff5c5c"/><circle cx="76" cy="44" r="2.5" fill="#ff5c5c"/><circle cx="94" cy="42" r="2.5" fill="#ff5c5c"/></g>
</svg>