<svg xmlns="http://www.w3.org/2000/svg" viewBox="0 0 300 212" fill="none" aria-hidden="true">
<rect width="300" height="212" fill="#0d1019"/>
<rect x="4" y="4" width="292" height="204" rx="14" fill="#131826" stroke="#283249" stroke-width="1"/>
<line x1="150" y1="54" x2="140" y2="80" stroke="#ff5c5c" stroke-width="11" stroke-linecap="round" stroke-linejoin="round"/><line x1="140" y1="80" x2="138" y2="108" stroke="#ff5c5c" stroke-width="9" stroke-linecap="round" stroke-linejoin="round"/><line x1="148" y1="102" x2="128" y2="138" stroke="#ff5c5c" stroke-width="14" stroke-linecap="round" stroke-linejoin="round"/><line x1="128" y1="138" x2="126" y2="172" stroke="#ff5c5c" stroke-width="11" stroke-linecap="round" stroke-linejoin="round"/><line x1="123" y1="173" x2="140" y2="173" stroke="#ff5c5c" stroke-width="8" stroke-linecap="round" stroke-linejoin="round"/><line x1="150" y1="54" x2="148" y2="102" stroke="#ff5c5c" stroke-width="18" stroke-linecap="round" stroke-linejoin="round"/><line x1="148" y1="102" x2="170" y2="142" stroke="#ff5c5c" stroke-width="16" stroke-linecap="round" stroke-linejoin="round"/><line x1="170" y1="142" x2="160" y2="172" stroke="#ff5c5c" stroke-width="13" stroke-linecap="round" stroke-linejoin="round"/><line x1="157" y1="173" x2="174" y2="173" stroke="#ff5c5c" stroke-width="9" stroke-linecap="round" stroke-linejoin="round"/><line x1="150" y1="54" x2="162" y2="82" stroke="#ff5c5c" stroke-width="13" stroke-linecap="round" stroke-linejoin="round"/><line x1="162" y1="82" x2="164" y2="110" stroke="#ff5c5c" stroke-width="11" stroke-linecap="round" stroke-linejoin="round"/><path d="M136 18 C130 4 122 12 126 28 C130 26 135 22 136 18Z" fill="#ff5c5c"/><circle cx="150" cy="22" r="13" fill="#ff5c5c"/>
<text x="150" y="190" text-anchor="middle" fill="#d8e4f8" font-family="'Segoe UI',system-ui,sans-serif" font-size="13.5" font-weight="700" letter-spacing="0.09em">ZÁVĚR</text>
<text x="150" y="207" text-anchor="middle" fill="#5e7299" font-family="'Segoe UI',system-ui,sans-serif" font-size="9" font-weight="400">kontrolovaný návrat</text>
</svg>