<svg xmlns="http://www.w3.org/2000/svg" viewBox="0 0 300 212" fill="none" aria-hidden="true">
<rect width="300" height="212" fill="#0d1019"/>
<rect x="4" y="4" width="292" height="204" rx="14" fill="#131826" stroke="#283249" stroke-width="1"/>
<line x1="208" y1="66" x2="178" y2="88" stroke="#e8943a" stroke-width="11" stroke-linecap="round" stroke-linejoin="round"/><line x1="178" y1="88" x2="162" y2="100" stroke="#e8943a" stroke-width="9" stroke-linecap="round" stroke-linejoin="round"/><line x1="132" y1="98" x2="92" y2="106" stroke="#e8943a" stroke-width="14" stroke-linecap="round" stroke-linejoin="round"/><line x1="92" y1="106" x2="56" y2="120" stroke="#e8943a" stroke-width="11" stroke-linecap="round" stroke-linejoin="round"/><line x1="208" y1="66" x2="132" y2="98" stroke="#e8943a" stroke-width="18" stroke-linecap="round" stroke-linejoin="round"/><line x1="132" y1="98" x2="96" y2="114" stroke="#e8943a" stroke-width="16" stroke-linecap="round" stroke-linejoin="round"/><line x1="96" y1="114" x2="60" y2="128" stroke="#e8943a" stroke-width="13" stroke-linecap="round" stroke-linejoin="round"/><line x1="208" y1="66" x2="210" y2="86" stroke="#e8943a" stroke-width="13" stroke-linecap="round" stroke-linejoin="round"/><line x1="210" y1="86" x2="208" y2="108" stroke="#e8943a" stroke-width="11" stroke-linecap="round" stroke-linejoin="round"/><path d="M246 44 C252 30 260 38 256 54 C252 52 247 48 246 44Z" fill="#e8943a"/><circle cx="232" cy="48" r="13" fill="#e8943a"/>
<text x="150" y="190" text-anchor="middle" fill="#d8e4f8" font-family="'Segoe UI',system-ui,sans-serif" font-size="13.5" font-weight="700" letter-spacing="0.09em">PRŮBĚH</text>
<text x="150" y="207" text-anchor="middle" fill="#5e7299" font-family="'Segoe UI',system-ui,sans-serif" font-size="9" font-weight="400">boky nahoru · tělo rovné</text>
</svg>