<svg xmlns="http://www.w3.org/2000/svg" viewBox="0 0 300 220" fill="none" aria-hidden="true">
<rect width="300" height="220" fill="#edf0f8"/>
<rect x="0" y="176" width="300" height="44" fill="#ff5c5c" opacity="0.08"/>
<line x1="0" y1="176" x2="300" y2="176" stroke="#ff5c5c" stroke-width="1.5" opacity="0.3"/>
<line x1="148" y1="52" x2="162" y2="80" stroke="#1c2240" stroke-width="11" stroke-linecap="round" stroke-linejoin="round"/><line x1="162" y1="80" x2="164" y2="108" stroke="#1c2240" stroke-width="9" stroke-linecap="round" stroke-linejoin="round"/><line x1="148" y1="102" x2="144" y2="140" stroke="#1c2240" stroke-width="14" stroke-linecap="round" stroke-linejoin="round"/><line x1="144" y1="140" x2="144" y2="170" stroke="#1c2240" stroke-width="11" stroke-linecap="round" stroke-linejoin="round"/><line x1="141" y1="171" x2="158" y2="171" stroke="#1c2240" stroke-width="8" stroke-linecap="round" stroke-linejoin="round"/><line x1="148" y1="52" x2="148" y2="102" stroke="#1c2240" stroke-width="18" stroke-linecap="round" stroke-linejoin="round"/><line x1="148" y1="102" x2="154" y2="80" stroke="#1c2240" stroke-width="16" stroke-linecap="round" stroke-linejoin="round"/><line x1="154" y1="80" x2="156" y2="104" stroke="#1c2240" stroke-width="13" stroke-linecap="round" stroke-linejoin="round"/><line x1="153" y1="105" x2="170" y2="105" stroke="#1c2240" stroke-width="9" stroke-linecap="round" stroke-linejoin="round"/><line x1="148" y1="52" x2="136" y2="76" stroke="#1c2240" stroke-width="13" stroke-linecap="round" stroke-linejoin="round"/><line x1="136" y1="76" x2="134" y2="56" stroke="#1c2240" stroke-width="11" stroke-linecap="round" stroke-linejoin="round"/><path d="M134 18 C128 4 120 12 124 28 C128 26 133 22 134 18Z" fill="#1c2240"/><circle cx="148" cy="22" r="13" fill="#1c2240"/>
<text x="150" y="196" text-anchor="middle" fill="#ff5c5c" font-family="'Segoe UI',system-ui,sans-serif" font-size="13" font-weight="700" letter-spacing="0.1em">PRŮBĚH</text>
<text x="150" y="211" text-anchor="middle" fill="#8090b0" font-family="'Segoe UI',system-ui,sans-serif" font-size="8.5" font-weight="400">koleno do výšky · rytmus</text>
</svg>