<svg xmlns="http://www.w3.org/2000/svg" viewBox="0 0 300 220" fill="none" aria-hidden="true">
<rect width="300" height="220" fill="#edf0f8"/>
<rect x="0" y="176" width="300" height="44" fill="#ff5c5c" opacity="0.08"/>
<line x1="0" y1="176" x2="300" y2="176" stroke="#ff5c5c" stroke-width="1.5" opacity="0.3"/>
<line x1="144" y1="82" x2="144" y2="100" stroke="#1c2240" stroke-width="11" stroke-linecap="round" stroke-linejoin="round"/><line x1="144" y1="100" x2="142" y2="122" stroke="#1c2240" stroke-width="9" stroke-linecap="round" stroke-linejoin="round"/><line x1="148" y1="118" x2="120" y2="122" stroke="#1c2240" stroke-width="14" stroke-linecap="round" stroke-linejoin="round"/><line x1="120" y1="122" x2="88" y2="126" stroke="#1c2240" stroke-width="11" stroke-linecap="round" stroke-linejoin="round"/><line x1="144" y1="82" x2="148" y2="118" stroke="#1c2240" stroke-width="18" stroke-linecap="round" stroke-linejoin="round"/><line x1="148" y1="118" x2="204" y2="128" stroke="#1c2240" stroke-width="16" stroke-linecap="round" stroke-linejoin="round"/><line x1="204" y1="128" x2="174" y2="138" stroke="#1c2240" stroke-width="13" stroke-linecap="round" stroke-linejoin="round"/><line x1="144" y1="82" x2="152" y2="100" stroke="#1c2240" stroke-width="13" stroke-linecap="round" stroke-linejoin="round"/><line x1="152" y1="100" x2="154" y2="122" stroke="#1c2240" stroke-width="11" stroke-linecap="round" stroke-linejoin="round"/><path d="M134 46 C128 32 120 40 124 56 C128 54 133 50 134 46Z" fill="#1c2240"/><circle cx="148" cy="50" r="13" fill="#1c2240"/>
<text x="150" y="196" text-anchor="middle" fill="#ff5c5c" font-family="'Segoe UI',system-ui,sans-serif" font-size="13" font-weight="700" letter-spacing="0.1em">ZÁVĚR</text>
<text x="150" y="211" text-anchor="middle" fill="#8090b0" font-family="'Segoe UI',system-ui,sans-serif" font-size="8.5" font-weight="400">kontrolovaný návrat</text>
</svg>