<svg xmlns="http://www.w3.org/2000/svg" viewBox="0 0 300 220" fill="none" aria-hidden="true">
<rect width="300" height="220" fill="#edf0f8"/>
<rect x="0" y="176" width="300" height="44" fill="#5b9fd4" opacity="0.08"/>
<line x1="0" y1="176" x2="300" y2="176" stroke="#5b9fd4" stroke-width="1.5" opacity="0.3"/>
<line x1="148" y1="46" x2="140" y2="72" stroke="#1c2240" stroke-width="11" stroke-linecap="round" stroke-linejoin="round"/><line x1="140" y1="72" x2="138" y2="100" stroke="#1c2240" stroke-width="9" stroke-linecap="round" stroke-linejoin="round"/><line x1="148" y1="96" x2="144" y2="130" stroke="#1c2240" stroke-width="14" stroke-linecap="round" stroke-linejoin="round"/><line x1="144" y1="130" x2="142" y2="154" stroke="#1c2240" stroke-width="11" stroke-linecap="round" stroke-linejoin="round"/><line x1="139" y1="155" x2="156" y2="155" stroke="#1c2240" stroke-width="8" stroke-linecap="round" stroke-linejoin="round"/><line x1="148" y1="46" x2="148" y2="96" stroke="#1c2240" stroke-width="18" stroke-linecap="round" stroke-linejoin="round"/><line x1="148" y1="96" x2="152" y2="132" stroke="#1c2240" stroke-width="16" stroke-linecap="round" stroke-linejoin="round"/><line x1="152" y1="132" x2="154" y2="152" stroke="#1c2240" stroke-width="13" stroke-linecap="round" stroke-linejoin="round"/><line x1="151" y1="153" x2="168" y2="153" stroke="#1c2240" stroke-width="9" stroke-linecap="round" stroke-linejoin="round"/><line x1="148" y1="46" x2="158" y2="74" stroke="#1c2240" stroke-width="13" stroke-linecap="round" stroke-linejoin="round"/><line x1="158" y1="74" x2="160" y2="100" stroke="#1c2240" stroke-width="11" stroke-linecap="round" stroke-linejoin="round"/><path d="M134 12 C128 -2 120 6 124 22 C128 20 133 16 134 12Z" fill="#1c2240"/><circle cx="148" cy="16" r="13" fill="#1c2240"/>
<text x="150" y="196" text-anchor="middle" fill="#5b9fd4" font-family="'Segoe UI',system-ui,sans-serif" font-size="13" font-weight="700" letter-spacing="0.1em">PRŮBĚH</text>
<text x="150" y="211" text-anchor="middle" fill="#8090b0" font-family="'Segoe UI',system-ui,sans-serif" font-size="8.5" font-weight="400">plný výpon · pauza nahoře</text>
</svg>