<svg xmlns="http://www.w3.org/2000/svg" viewBox="0 0 300 212" fill="none" aria-hidden="true">
<defs>
  <filter id="sfGlow" x="-40%" y="-40%" width="180%" height="180%">
    <feGaussianBlur stdDeviation="0.45" result="b"/>
    <feMerge>
      <feMergeNode in="b"/>
      <feMergeNode in="SourceGraphic"/>
    </feMerge>
  </filter>
</defs>
<rect width="300" height="212" fill="#0a0c10"/>
<rect x="5" y="5" width="290" height="202" rx="16" ry="16" fill="#131822" stroke="#3a4558" stroke-width="1.2"/>
<g transform="translate(50,12)">
<line x1="8" y1="108" x2="192" y2="108" stroke="#4a5f82" stroke-width="1" opacity="0.4"/>
<g filter="url(#sfGlow)"><circle cx="40" cy="34" r="7.5" stroke="#ff5c5c" stroke-width="1.85" fill="none" opacity="0.98"/><path d="M40 41.5 L50 46 L62 54 L102 62 L136 66 L168 108" stroke="#ff5c5c" stroke-width="2.2" stroke-linecap="round" stroke-linejoin="round"/><path d="M62 54 L54 106 L48 108" stroke="#ff5c5c" stroke-width="2.2" stroke-linecap="round" stroke-linejoin="round"/><path d="M62 54 L58 106 L62 108" stroke="#ff5c5c" stroke-width="2.2" stroke-linecap="round" stroke-linejoin="round"/><circle cx="50" cy="46" r="2.5" fill="#ff5c5c"/><circle cx="62" cy="54" r="2.5" fill="#ff5c5c"/><circle cx="102" cy="62" r="2.5" fill="#ff5c5c"/><circle cx="136" cy="66" r="2.5" fill="#ff5c5c"/><circle cx="168" cy="108" r="2.5" fill="#ff5c5c"/><circle cx="54" cy="106" r="2.5" fill="#ff5c5c"/><circle cx="48" cy="108" r="2.5" fill="#ff5c5c"/><circle cx="58" cy="106" r="2.5" fill="#ff5c5c"/><circle cx="62" cy="108" r="2.5" fill="#ff5c5c"/></g>
</g>


<text x="150" y="184" text-anchor="middle" fill="#eef2f9" font-family="Segoe UI,system-ui,sans-serif" font-size="13.5" font-weight="700" letter-spacing="0.14em">VÝCHOZÍ</text>

</svg>