<svg xmlns="http://www.w3.org/2000/svg" viewBox="0 0 200 120" fill="none" aria-hidden="true">
<defs>
  <filter id="sfGlow" x="-35%" y="-35%" width="170%" height="170%">
    <feGaussianBlur stdDeviation="0.5" result="b"/>
    <feMerge>
      <feMergeNode in="b"/>
      <feMergeNode in="SourceGraphic"/>
    </feMerge>
  </filter>
</defs>
<rect width="200" height="120" fill="#141414"/>
<line x1="8" y1="108" x2="192" y2="108" stroke="#4a5570" stroke-width="1.2" opacity="0.45"/>
<g filter="url(#sfGlow)"><circle cx="100" cy="32" r="7.5" stroke="#5b9fd4" stroke-width="1.85" fill="none" opacity="0.98"/><path d="M100 39.5 L100 44 L100 68" stroke="#5b9fd4" stroke-width="2.15" stroke-linecap="round" stroke-linejoin="round"/><path d="M100 68 L82 84 L78 108" stroke="#5b9fd4" stroke-width="2.15" stroke-linecap="round" stroke-linejoin="round"/><path d="M100 68 L118 84 L122 108" stroke="#5b9fd4" stroke-width="2.15" stroke-linecap="round" stroke-linejoin="round"/><path d="M100 44 L78 56" stroke="#5b9fd4" stroke-width="2.15" stroke-linecap="round" stroke-linejoin="round"/><path d="M100 44 L122 56" stroke="#5b9fd4" stroke-width="2.15" stroke-linecap="round" stroke-linejoin="round"/><circle cx="100" cy="44" r="2.5" fill="#5b9fd4"/><circle cx="100" cy="68" r="2.5" fill="#5b9fd4"/><circle cx="82" cy="84" r="2.5" fill="#5b9fd4"/><circle cx="118" cy="84" r="2.5" fill="#5b9fd4"/><circle cx="78" cy="108" r="2.5" fill="#5b9fd4"/><circle cx="122" cy="108" r="2.5" fill="#5b9fd4"/><circle cx="78" cy="56" r="2.5" fill="#5b9fd4"/><circle cx="122" cy="56" r="2.5" fill="#5b9fd4"/></g>
</svg>