<svg xmlns="http://www.w3.org/2000/svg" viewBox="0 0 200 120" fill="none" aria-hidden="true">
<defs>
  <filter id="sfGlow" x="-35%" y="-35%" width="170%" height="170%">
    <feGaussianBlur stdDeviation="0.5" result="b"/>
    <feMerge>
      <feMergeNode in="b"/>
      <feMergeNode in="SourceGraphic"/>
    </feMerge>
  </filter>
</defs>
<rect width="200" height="120" fill="#141414"/>
<line x1="8" y1="108" x2="192" y2="108" stroke="#4a5570" stroke-width="1.2" opacity="0.45"/>
<g filter="url(#sfGlow)"><circle cx="100" cy="26" r="7.5" stroke="#5b9fd4" stroke-width="1.85" fill="none" opacity="0.98"/><path d="M100 33.5 L100 38 L100 58" stroke="#5b9fd4" stroke-width="2.15" stroke-linecap="round" stroke-linejoin="round"/><path d="M100 58 L86 88 L82 108" stroke="#5b9fd4" stroke-width="2.15" stroke-linecap="round" stroke-linejoin="round"/><path d="M100 58 L114 88 L118 108" stroke="#5b9fd4" stroke-width="2.15" stroke-linecap="round" stroke-linejoin="round"/><path d="M100 38 L80 50" stroke="#5b9fd4" stroke-width="2.15" stroke-linecap="round" stroke-linejoin="round"/><path d="M100 38 L120 50" stroke="#5b9fd4" stroke-width="2.15" stroke-linecap="round" stroke-linejoin="round"/><circle cx="100" cy="38" r="2.5" fill="#5b9fd4"/><circle cx="100" cy="58" r="2.5" fill="#5b9fd4"/><circle cx="86" cy="88" r="2.5" fill="#5b9fd4"/><circle cx="114" cy="88" r="2.5" fill="#5b9fd4"/><circle cx="82" cy="108" r="2.5" fill="#5b9fd4"/><circle cx="118" cy="108" r="2.5" fill="#5b9fd4"/><circle cx="80" cy="50" r="2.5" fill="#5b9fd4"/><circle cx="120" cy="50" r="2.5" fill="#5b9fd4"/></g>
</svg>