<svg xmlns="http://www.w3.org/2000/svg" viewBox="0 0 200 120" fill="none" aria-hidden="true">
<defs>
  <filter id="sfGlow" x="-35%" y="-35%" width="170%" height="170%">
    <feGaussianBlur stdDeviation="0.5" result="b"/>
    <feMerge>
      <feMergeNode in="b"/>
      <feMergeNode in="SourceGraphic"/>
    </feMerge>
  </filter>
</defs>
<rect width="200" height="120" fill="#141414"/>
<line x1="8" y1="108" x2="192" y2="108" stroke="#4a5570" stroke-width="1.2" opacity="0.45"/>
<g filter="url(#sfGlow)"><g transform="translate(34,4) scale(1.12)"><circle cx="70" cy="38" r="6" stroke="#ff5c5c" stroke-width="1.85" fill="none" opacity="0.98"/><path d="M70 44 L58 48 L46 50" stroke="#ff5c5c" stroke-width="2.05" stroke-linecap="round" stroke-linejoin="round"/><path d="M46 50 L42 72" stroke="#ff5c5c" stroke-width="2.05" stroke-linecap="round" stroke-linejoin="round"/><path d="M46 50 L52 72" stroke="#ff5c5c" stroke-width="2.05" stroke-linecap="round" stroke-linejoin="round"/><path d="M58 48 L54 72" stroke="#ff5c5c" stroke-width="2.05" stroke-linecap="round" stroke-linejoin="round"/><path d="M58 48 L62 72" stroke="#ff5c5c" stroke-width="2.05" stroke-linecap="round" stroke-linejoin="round"/><path d="M70 44 L82 36" stroke="#ff5c5c" stroke-width="2" stroke-linecap="round" stroke-linejoin="round"/><path d="M46 50 L34 58" stroke="#ff5c5c" stroke-width="2" stroke-linecap="round" stroke-linejoin="round"/><circle cx="42" cy="72" r="2.5" fill="#ff5c5c"/><circle cx="52" cy="72" r="2.5" fill="#ff5c5c"/><circle cx="54" cy="72" r="2.5" fill="#ff5c5c"/><circle cx="62" cy="72" r="2.5" fill="#ff5c5c"/><circle cx="82" cy="36" r="2.5" fill="#ff5c5c"/><circle cx="34" cy="58" r="2.5" fill="#ff5c5c"/></g></g>
</svg>