<svg xmlns="http://www.w3.org/2000/svg" viewBox="0 0 300 212" fill="none" aria-hidden="true">
<rect width="300" height="212" fill="#0d1019"/>
<rect x="4" y="4" width="292" height="204" rx="14" fill="#131826" stroke="#283249" stroke-width="1"/>
<line x1="148" y1="82" x2="142" y2="102" stroke="#e8943a" stroke-width="11" stroke-linecap="round" stroke-linejoin="round"/><line x1="142" y1="102" x2="140" y2="122" stroke="#e8943a" stroke-width="9" stroke-linecap="round" stroke-linejoin="round"/><line x1="148" y1="122" x2="104" y2="140" stroke="#e8943a" stroke-width="14" stroke-linecap="round" stroke-linejoin="round"/><line x1="104" y1="140" x2="124" y2="150" stroke="#e8943a" stroke-width="11" stroke-linecap="round" stroke-linejoin="round"/><line x1="148" y1="82" x2="148" y2="122" stroke="#e8943a" stroke-width="18" stroke-linecap="round" stroke-linejoin="round"/><line x1="148" y1="122" x2="192" y2="142" stroke="#e8943a" stroke-width="16" stroke-linecap="round" stroke-linejoin="round"/><line x1="192" y1="142" x2="172" y2="152" stroke="#e8943a" stroke-width="13" stroke-linecap="round" stroke-linejoin="round"/><line x1="148" y1="82" x2="154" y2="102" stroke="#e8943a" stroke-width="13" stroke-linecap="round" stroke-linejoin="round"/><line x1="154" y1="102" x2="156" y2="122" stroke="#e8943a" stroke-width="11" stroke-linecap="round" stroke-linejoin="round"/><path d="M134 46 C128 32 120 40 124 56 C128 54 133 50 134 46Z" fill="#e8943a"/><circle cx="148" cy="50" r="13" fill="#e8943a"/>
<text x="150" y="190" text-anchor="middle" fill="#d8e4f8" font-family="'Segoe UI',system-ui,sans-serif" font-size="13.5" font-weight="700" letter-spacing="0.09em">ZÁVĚR</text>
<text x="150" y="207" text-anchor="middle" fill="#5e7299" font-family="'Segoe UI',system-ui,sans-serif" font-size="9" font-weight="400">kontrolovaný návrat</text>
</svg>