<svg xmlns="http://www.w3.org/2000/svg" viewBox="0 0 300 212" fill="none" aria-hidden="true">
<defs>
  <filter id="sfGlow" x="-40%" y="-40%" width="180%" height="180%">
    <feGaussianBlur stdDeviation="0.45" result="b"/>
    <feMerge>
      <feMergeNode in="b"/>
      <feMergeNode in="SourceGraphic"/>
    </feMerge>
  </filter>
</defs>
<rect width="300" height="212" fill="#0a0c10"/>
<rect x="5" y="5" width="290" height="202" rx="16" ry="16" fill="#131822" stroke="#3a4558" stroke-width="1.2"/>
<g transform="translate(50,12)">
<line x1="8" y1="108" x2="192" y2="108" stroke="#4a5f82" stroke-width="1" opacity="0.4"/>
<g filter="url(#sfGlow)"><circle cx="100" cy="26" r="7.5" stroke="#ff5c5c" stroke-width="1.85" fill="none" opacity="0.98"/><path d="M100 33.5 L100 38 L100 58" stroke="#ff5c5c" stroke-width="2.15" stroke-linecap="round" stroke-linejoin="round"/><path d="M100 58 L86 88 L82 108" stroke="#ff5c5c" stroke-width="2.15" stroke-linecap="round" stroke-linejoin="round"/><path d="M100 58 L114 88 L118 108" stroke="#ff5c5c" stroke-width="2.15" stroke-linecap="round" stroke-linejoin="round"/><path d="M100 38 L80 50" stroke="#ff5c5c" stroke-width="2.15" stroke-linecap="round" stroke-linejoin="round"/><path d="M100 38 L120 50" stroke="#ff5c5c" stroke-width="2.15" stroke-linecap="round" stroke-linejoin="round"/><circle cx="100" cy="38" r="2.5" fill="#ff5c5c"/><circle cx="100" cy="58" r="2.5" fill="#ff5c5c"/><circle cx="86" cy="88" r="2.5" fill="#ff5c5c"/><circle cx="114" cy="88" r="2.5" fill="#ff5c5c"/><circle cx="82" cy="108" r="2.5" fill="#ff5c5c"/><circle cx="118" cy="108" r="2.5" fill="#ff5c5c"/><circle cx="80" cy="50" r="2.5" fill="#ff5c5c"/><circle cx="120" cy="50" r="2.5" fill="#ff5c5c"/></g>
</g>
<g transform="translate(18,118)" stroke="#e8edf7" stroke-width="2.2" stroke-linecap="round" stroke-linejoin="round" fill="none" opacity="0.92">
<path d="M0 22 L0 0 M-6 8 L0 0 L6 8"/></g>

<text x="150" y="184" text-anchor="middle" fill="#eef2f9" font-family="Segoe UI,system-ui,sans-serif" font-size="13.5" font-weight="700" letter-spacing="0.14em">ZÁVĚR</text>
<text x="150" y="202" text-anchor="middle" fill="#8b9ab8" font-family="Segoe UI,system-ui,sans-serif" font-size="9.5">Dokonči v klidu</text>
</svg>