<svg xmlns="http://www.w3.org/2000/svg" viewBox="0 0 300 212" fill="none" aria-hidden="true">
<rect width="300" height="212" fill="#0d1019"/>
<rect x="4" y="4" width="292" height="204" rx="14" fill="#131826" stroke="#283249" stroke-width="1"/>
<line x1="208" y1="86" x2="232" y2="76" stroke="#e8943a" stroke-width="11" stroke-linecap="round" stroke-linejoin="round"/><line x1="232" y1="76" x2="252" y2="66" stroke="#e8943a" stroke-width="9" stroke-linecap="round" stroke-linejoin="round"/><line x1="130" y1="84" x2="88" y2="94" stroke="#e8943a" stroke-width="14" stroke-linecap="round" stroke-linejoin="round"/><line x1="88" y1="94" x2="52" y2="100" stroke="#e8943a" stroke-width="11" stroke-linecap="round" stroke-linejoin="round"/><line x1="208" y1="86" x2="130" y2="84" stroke="#e8943a" stroke-width="18" stroke-linecap="round" stroke-linejoin="round"/><line x1="130" y1="84" x2="90" y2="90" stroke="#e8943a" stroke-width="16" stroke-linecap="round" stroke-linejoin="round"/><line x1="90" y1="90" x2="54" y2="96" stroke="#e8943a" stroke-width="13" stroke-linecap="round" stroke-linejoin="round"/><line x1="208" y1="86" x2="230" y2="72" stroke="#e8943a" stroke-width="13" stroke-linecap="round" stroke-linejoin="round"/><line x1="230" y1="72" x2="250" y2="62" stroke="#e8943a" stroke-width="11" stroke-linecap="round" stroke-linejoin="round"/><path d="M246 76 C252 62 260 70 256 86 C252 84 247 80 246 76Z" fill="#e8943a"/><circle cx="232" cy="80" r="13" fill="#e8943a"/>
<text x="150" y="190" text-anchor="middle" fill="#d8e4f8" font-family="'Segoe UI',system-ui,sans-serif" font-size="13.5" font-weight="700" letter-spacing="0.09em">ZÁVĚR</text>
<text x="150" y="207" text-anchor="middle" fill="#5e7299" font-family="'Segoe UI',system-ui,sans-serif" font-size="9" font-weight="400">kontrolovaný návrat</text>
</svg>