<svg xmlns="http://www.w3.org/2000/svg" viewBox="0 0 300 212" fill="none" aria-hidden="true">
<rect width="300" height="212" fill="#0d1019"/>
<rect x="4" y="4" width="292" height="204" rx="14" fill="#131826" stroke="#283249" stroke-width="1"/>
<line x1="148" y1="46" x2="140" y2="72" stroke="#ff5c5c" stroke-width="11" stroke-linecap="round" stroke-linejoin="round"/><line x1="140" y1="72" x2="138" y2="100" stroke="#ff5c5c" stroke-width="9" stroke-linecap="round" stroke-linejoin="round"/><line x1="148" y1="96" x2="144" y2="130" stroke="#ff5c5c" stroke-width="14" stroke-linecap="round" stroke-linejoin="round"/><line x1="144" y1="130" x2="142" y2="156" stroke="#ff5c5c" stroke-width="11" stroke-linecap="round" stroke-linejoin="round"/><line x1="139" y1="157" x2="156" y2="157" stroke="#ff5c5c" stroke-width="8" stroke-linecap="round" stroke-linejoin="round"/><line x1="148" y1="46" x2="148" y2="96" stroke="#ff5c5c" stroke-width="18" stroke-linecap="round" stroke-linejoin="round"/><line x1="148" y1="96" x2="152" y2="132" stroke="#ff5c5c" stroke-width="16" stroke-linecap="round" stroke-linejoin="round"/><line x1="152" y1="132" x2="154" y2="154" stroke="#ff5c5c" stroke-width="13" stroke-linecap="round" stroke-linejoin="round"/><line x1="151" y1="155" x2="168" y2="155" stroke="#ff5c5c" stroke-width="9" stroke-linecap="round" stroke-linejoin="round"/><line x1="148" y1="46" x2="158" y2="74" stroke="#ff5c5c" stroke-width="13" stroke-linecap="round" stroke-linejoin="round"/><line x1="158" y1="74" x2="160" y2="100" stroke="#ff5c5c" stroke-width="11" stroke-linecap="round" stroke-linejoin="round"/><path d="M134 12 C128 -2 120 6 124 22 C128 20 133 16 134 12Z" fill="#ff5c5c"/><circle cx="148" cy="16" r="13" fill="#ff5c5c"/>
<text x="150" y="190" text-anchor="middle" fill="#d8e4f8" font-family="'Segoe UI',system-ui,sans-serif" font-size="13.5" font-weight="700" letter-spacing="0.09em">PRŮBĚH</text>
<text x="150" y="207" text-anchor="middle" fill="#5e7299" font-family="'Segoe UI',system-ui,sans-serif" font-size="9" font-weight="400">plný výpon · pauza nahoře</text>
</svg>