<svg xmlns="http://www.w3.org/2000/svg" viewBox="0 0 300 212" fill="none" aria-hidden="true">
<rect width="300" height="212" fill="#0d1019"/>
<rect x="4" y="4" width="292" height="204" rx="14" fill="#131826" stroke="#283249" stroke-width="1"/>
<line x1="158" y1="52" x2="150" y2="80" stroke="#c5e86d" stroke-width="11" stroke-linecap="round" stroke-linejoin="round"/><line x1="150" y1="80" x2="148" y2="108" stroke="#c5e86d" stroke-width="9" stroke-linecap="round" stroke-linejoin="round"/><line x1="158" y1="102" x2="154" y2="140" stroke="#c5e86d" stroke-width="14" stroke-linecap="round" stroke-linejoin="round"/><line x1="154" y1="140" x2="154" y2="172" stroke="#c5e86d" stroke-width="11" stroke-linecap="round" stroke-linejoin="round"/><line x1="151" y1="173" x2="168" y2="173" stroke="#c5e86d" stroke-width="8" stroke-linecap="round" stroke-linejoin="round"/><line x1="158" y1="52" x2="158" y2="102" stroke="#c5e86d" stroke-width="18" stroke-linecap="round" stroke-linejoin="round"/><line x1="158" y1="102" x2="180" y2="142" stroke="#c5e86d" stroke-width="16" stroke-linecap="round" stroke-linejoin="round"/><line x1="180" y1="142" x2="186" y2="172" stroke="#c5e86d" stroke-width="13" stroke-linecap="round" stroke-linejoin="round"/><line x1="183" y1="173" x2="200" y2="173" stroke="#c5e86d" stroke-width="9" stroke-linecap="round" stroke-linejoin="round"/><line x1="158" y1="52" x2="168" y2="82" stroke="#c5e86d" stroke-width="13" stroke-linecap="round" stroke-linejoin="round"/><line x1="168" y1="82" x2="170" y2="110" stroke="#c5e86d" stroke-width="11" stroke-linecap="round" stroke-linejoin="round"/><path d="M144 18 C138 4 130 12 134 28 C138 26 143 22 144 18Z" fill="#c5e86d"/><circle cx="158" cy="22" r="13" fill="#c5e86d"/>
<text x="150" y="190" text-anchor="middle" fill="#d8e4f8" font-family="'Segoe UI',system-ui,sans-serif" font-size="13.5" font-weight="700" letter-spacing="0.09em">PRŮBĚH</text>
<text x="150" y="207" text-anchor="middle" fill="#5e7299" font-family="'Segoe UI',system-ui,sans-serif" font-size="9" font-weight="400">boky nahoru · tělo rovné</text>
</svg>