<svg xmlns="http://www.w3.org/2000/svg" viewBox="0 0 300 212" fill="none" aria-hidden="true">
<rect width="300" height="212" fill="#0d1019"/>
<rect x="4" y="4" width="292" height="204" rx="14" fill="#131826" stroke="#283249" stroke-width="1"/>
<line x1="140" y1="74" x2="114" y2="108" stroke="#5b9fd4" stroke-width="11" stroke-linecap="round" stroke-linejoin="round"/><line x1="114" y1="108" x2="98" y2="112" stroke="#5b9fd4" stroke-width="9" stroke-linecap="round" stroke-linejoin="round"/><line x1="148" y1="132" x2="120" y2="140" stroke="#5b9fd4" stroke-width="14" stroke-linecap="round" stroke-linejoin="round"/><line x1="120" y1="140" x2="138" y2="172" stroke="#5b9fd4" stroke-width="11" stroke-linecap="round" stroke-linejoin="round"/><line x1="135" y1="173" x2="152" y2="173" stroke="#5b9fd4" stroke-width="8" stroke-linecap="round" stroke-linejoin="round"/><line x1="140" y1="74" x2="148" y2="132" stroke="#5b9fd4" stroke-width="18" stroke-linecap="round" stroke-linejoin="round"/><line x1="148" y1="132" x2="178" y2="144" stroke="#5b9fd4" stroke-width="16" stroke-linecap="round" stroke-linejoin="round"/><line x1="178" y1="144" x2="160" y2="172" stroke="#5b9fd4" stroke-width="13" stroke-linecap="round" stroke-linejoin="round"/><line x1="157" y1="173" x2="174" y2="173" stroke="#5b9fd4" stroke-width="9" stroke-linecap="round" stroke-linejoin="round"/><line x1="140" y1="74" x2="184" y2="110" stroke="#5b9fd4" stroke-width="13" stroke-linecap="round" stroke-linejoin="round"/><line x1="184" y1="110" x2="200" y2="114" stroke="#5b9fd4" stroke-width="11" stroke-linecap="round" stroke-linejoin="round"/><path d="M128 42 C122 28 114 36 118 52 C122 50 127 46 128 42Z" fill="#5b9fd4"/><circle cx="142" cy="46" r="13" fill="#5b9fd4"/>
<text x="150" y="190" text-anchor="middle" fill="#d8e4f8" font-family="'Segoe UI',system-ui,sans-serif" font-size="13.5" font-weight="700" letter-spacing="0.09em">PRŮBĚH</text>
<text x="150" y="207" text-anchor="middle" fill="#5e7299" font-family="'Segoe UI',system-ui,sans-serif" font-size="9" font-weight="400">kolena nad špičkami · záda rovná</text>
</svg>