<svg xmlns="http://www.w3.org/2000/svg" viewBox="0 0 300 220" fill="none" aria-hidden="true">
<rect width="300" height="220" fill="#edf0f8"/>
<rect x="0" y="176" width="300" height="44" fill="#e8943a" opacity="0.08"/>
<line x1="0" y1="176" x2="300" y2="176" stroke="#e8943a" stroke-width="1.5" opacity="0.3"/>
<line x1="154" y1="94" x2="150" y2="116" stroke="#1c2240" stroke-width="11" stroke-linecap="round" stroke-linejoin="round"/><line x1="150" y1="116" x2="152" y2="136" stroke="#1c2240" stroke-width="9" stroke-linecap="round" stroke-linejoin="round"/><line x1="148" y1="68" x2="144" y2="138" stroke="#1c2240" stroke-width="14" stroke-linecap="round" stroke-linejoin="round"/><line x1="144" y1="138" x2="142" y2="170" stroke="#1c2240" stroke-width="11" stroke-linecap="round" stroke-linejoin="round"/><line x1="139" y1="171" x2="156" y2="171" stroke="#1c2240" stroke-width="8" stroke-linecap="round" stroke-linejoin="round"/><line x1="154" y1="94" x2="148" y2="68" stroke="#1c2240" stroke-width="18" stroke-linecap="round" stroke-linejoin="round"/><line x1="148" y1="68" x2="154" y2="140" stroke="#1c2240" stroke-width="16" stroke-linecap="round" stroke-linejoin="round"/><line x1="154" y1="140" x2="156" y2="170" stroke="#1c2240" stroke-width="13" stroke-linecap="round" stroke-linejoin="round"/><line x1="153" y1="171" x2="170" y2="171" stroke="#1c2240" stroke-width="9" stroke-linecap="round" stroke-linejoin="round"/><line x1="154" y1="94" x2="160" y2="116" stroke="#1c2240" stroke-width="13" stroke-linecap="round" stroke-linejoin="round"/><line x1="160" y1="116" x2="162" y2="136" stroke="#1c2240" stroke-width="11" stroke-linecap="round" stroke-linejoin="round"/><path d="M146 112 C140 98 132 106 136 122 C140 120 145 116 146 112Z" fill="#1c2240"/><circle cx="160" cy="116" r="13" fill="#1c2240"/>
<text x="150" y="196" text-anchor="middle" fill="#e8943a" font-family="'Segoe UI',system-ui,sans-serif" font-size="13" font-weight="700" letter-spacing="0.1em">ZÁVĚR</text>
<text x="150" y="211" text-anchor="middle" fill="#8090b0" font-family="'Segoe UI',system-ui,sans-serif" font-size="8.5" font-weight="400">kontrolovaný návrat</text>
</svg>