<svg xmlns="http://www.w3.org/2000/svg" viewBox="0 0 300 212" fill="none" aria-hidden="true">
<rect width="300" height="212" fill="#0d1019"/>
<rect x="4" y="4" width="292" height="204" rx="14" fill="#131826" stroke="#283249" stroke-width="1"/>
<line x1="154" y1="94" x2="150" y2="116" stroke="#e8943a" stroke-width="11" stroke-linecap="round" stroke-linejoin="round"/><line x1="150" y1="116" x2="152" y2="136" stroke="#e8943a" stroke-width="9" stroke-linecap="round" stroke-linejoin="round"/><line x1="148" y1="68" x2="144" y2="138" stroke="#e8943a" stroke-width="14" stroke-linecap="round" stroke-linejoin="round"/><line x1="144" y1="138" x2="142" y2="172" stroke="#e8943a" stroke-width="11" stroke-linecap="round" stroke-linejoin="round"/><line x1="139" y1="173" x2="156" y2="173" stroke="#e8943a" stroke-width="8" stroke-linecap="round" stroke-linejoin="round"/><line x1="154" y1="94" x2="148" y2="68" stroke="#e8943a" stroke-width="18" stroke-linecap="round" stroke-linejoin="round"/><line x1="148" y1="68" x2="154" y2="140" stroke="#e8943a" stroke-width="16" stroke-linecap="round" stroke-linejoin="round"/><line x1="154" y1="140" x2="156" y2="172" stroke="#e8943a" stroke-width="13" stroke-linecap="round" stroke-linejoin="round"/><line x1="153" y1="173" x2="170" y2="173" stroke="#e8943a" stroke-width="9" stroke-linecap="round" stroke-linejoin="round"/><line x1="154" y1="94" x2="160" y2="116" stroke="#e8943a" stroke-width="13" stroke-linecap="round" stroke-linejoin="round"/><line x1="160" y1="116" x2="162" y2="136" stroke="#e8943a" stroke-width="11" stroke-linecap="round" stroke-linejoin="round"/><path d="M146 112 C140 98 132 106 136 122 C140 120 145 116 146 112Z" fill="#e8943a"/><circle cx="160" cy="116" r="13" fill="#e8943a"/>
<text x="150" y="190" text-anchor="middle" fill="#d8e4f8" font-family="'Segoe UI',system-ui,sans-serif" font-size="13.5" font-weight="700" letter-spacing="0.09em">ZÁVĚR</text>
<text x="150" y="207" text-anchor="middle" fill="#5e7299" font-family="'Segoe UI',system-ui,sans-serif" font-size="9" font-weight="400">kontrolovaný návrat</text>
</svg>