<svg xmlns="http://www.w3.org/2000/svg" viewBox="0 0 300 220" fill="none" aria-hidden="true">
<rect width="300" height="220" fill="#edf0f8"/>
<rect x="0" y="176" width="300" height="44" fill="#ff5c5c" opacity="0.08"/>
<line x1="0" y1="176" x2="300" y2="176" stroke="#ff5c5c" stroke-width="1.5" opacity="0.3"/>
<line x1="148" y1="82" x2="142" y2="102" stroke="#1c2240" stroke-width="11" stroke-linecap="round" stroke-linejoin="round"/><line x1="142" y1="102" x2="140" y2="122" stroke="#1c2240" stroke-width="9" stroke-linecap="round" stroke-linejoin="round"/><line x1="148" y1="122" x2="104" y2="140" stroke="#1c2240" stroke-width="14" stroke-linecap="round" stroke-linejoin="round"/><line x1="104" y1="140" x2="124" y2="150" stroke="#1c2240" stroke-width="11" stroke-linecap="round" stroke-linejoin="round"/><line x1="148" y1="82" x2="148" y2="122" stroke="#1c2240" stroke-width="18" stroke-linecap="round" stroke-linejoin="round"/><line x1="148" y1="122" x2="192" y2="142" stroke="#1c2240" stroke-width="16" stroke-linecap="round" stroke-linejoin="round"/><line x1="192" y1="142" x2="172" y2="152" stroke="#1c2240" stroke-width="13" stroke-linecap="round" stroke-linejoin="round"/><line x1="148" y1="82" x2="154" y2="102" stroke="#1c2240" stroke-width="13" stroke-linecap="round" stroke-linejoin="round"/><line x1="154" y1="102" x2="156" y2="122" stroke="#1c2240" stroke-width="11" stroke-linecap="round" stroke-linejoin="round"/><path d="M134 46 C128 32 120 40 124 56 C128 54 133 50 134 46Z" fill="#1c2240"/><circle cx="148" cy="50" r="13" fill="#1c2240"/>
<text x="150" y="196" text-anchor="middle" fill="#ff5c5c" font-family="'Segoe UI',system-ui,sans-serif" font-size="13" font-weight="700" letter-spacing="0.1em">PRŮBĚH</text>
<text x="150" y="211" text-anchor="middle" fill="#8090b0" font-family="'Segoe UI',system-ui,sans-serif" font-size="8.5" font-weight="400">jemný tlak kolen dolů</text>
</svg>