<svg xmlns="http://www.w3.org/2000/svg" viewBox="0 0 300 220" fill="none" aria-hidden="true">
<rect width="300" height="220" fill="#edf0f8"/>
<rect x="0" y="176" width="300" height="44" fill="#c5e86d" opacity="0.08"/>
<line x1="0" y1="176" x2="300" y2="176" stroke="#c5e86d" stroke-width="1.5" opacity="0.3"/>
<line x1="148" y1="54" x2="140" y2="80" stroke="#1c2240" stroke-width="11" stroke-linecap="round" stroke-linejoin="round"/><line x1="140" y1="80" x2="136" y2="108" stroke="#1c2240" stroke-width="9" stroke-linecap="round" stroke-linejoin="round"/><line x1="142" y1="102" x2="104" y2="148" stroke="#1c2240" stroke-width="14" stroke-linecap="round" stroke-linejoin="round"/><line x1="104" y1="148" x2="88" y2="170" stroke="#1c2240" stroke-width="11" stroke-linecap="round" stroke-linejoin="round"/><line x1="85" y1="171" x2="102" y2="171" stroke="#1c2240" stroke-width="8" stroke-linecap="round" stroke-linejoin="round"/><line x1="148" y1="54" x2="142" y2="102" stroke="#1c2240" stroke-width="18" stroke-linecap="round" stroke-linejoin="round"/><line x1="142" y1="102" x2="194" y2="124" stroke="#1c2240" stroke-width="16" stroke-linecap="round" stroke-linejoin="round"/><line x1="194" y1="124" x2="170" y2="170" stroke="#1c2240" stroke-width="13" stroke-linecap="round" stroke-linejoin="round"/><line x1="167" y1="171" x2="184" y2="171" stroke="#1c2240" stroke-width="9" stroke-linecap="round" stroke-linejoin="round"/><line x1="148" y1="54" x2="160" y2="82" stroke="#1c2240" stroke-width="13" stroke-linecap="round" stroke-linejoin="round"/><line x1="160" y1="82" x2="164" y2="110" stroke="#1c2240" stroke-width="11" stroke-linecap="round" stroke-linejoin="round"/><path d="M136 20 C130 6 122 14 126 30 C130 28 135 24 136 20Z" fill="#1c2240"/><circle cx="150" cy="24" r="13" fill="#1c2240"/>
<text x="150" y="196" text-anchor="middle" fill="#c5e86d" font-family="'Segoe UI',system-ui,sans-serif" font-size="13" font-weight="700" letter-spacing="0.1em">PRŮBĚH</text>
<text x="150" y="211" text-anchor="middle" fill="#8090b0" font-family="'Segoe UI',system-ui,sans-serif" font-size="8.5" font-weight="400">přední koleno nad kotníkem</text>
</svg>